u2194_ 700 - 60.ufo
<glyph name="dollar" format="1">
  <advance width="820"/>
  <unicode hex="0024"/>
  <outline>
    <contour>
      <point x="471" y="-1" type="curve" smooth="yes"/>
      <point x="471" y="686" type="line"/>
      <point x="484" y="708" type="line"/>
      <point x="673" y="553" type="line" smooth="yes"/>
      <point x="698" y="532"/>
      <point x="737" y="536"/>
      <point x="757" y="561" type="curve" smooth="yes"/>
      <point x="778" y="586"/>
      <point x="774" y="625"/>
      <point x="749" y="645" type="curve" smooth="yes"/>
      <point x="507" y="845" type="line" smooth="yes"/>
      <point x="486" y="862"/>
      <point x="460" y="864"/>
      <point x="439" y="852" type="curve"/>
      <point x="431" y="856"/>
      <point x="421" y="859"/>
      <point x="411" y="859" type="curve" smooth="yes"/>
      <point x="379" y="859"/>
      <point x="351" y="831"/>
      <point x="351" y="799" type="curve" smooth="yes"/>
      <point x="351" y="719" type="line"/>
      <point x="59" y="230" type="line" smooth="yes"/>
      <point x="42" y="202"/>
      <point x="51" y="164"/>
      <point x="79" y="148" type="curve" smooth="yes"/>
      <point x="107" y="131"/>
      <point x="145" y="140"/>
      <point x="161" y="168" type="curve" smooth="yes"/>
      <point x="351" y="485" type="line"/>
      <point x="351" y="-1" type="line" smooth="yes"/>
      <point x="351" y="-33"/>
      <point x="379" y="-61"/>
      <point x="411" y="-61" type="curve" smooth="yes"/>
      <point x="443" y="-61"/>
      <point x="471" y="-33"/>
    </contour>
  </outline>
</glyph>
<glyph name="ampersand" format="1">
  <advance width="620"/>
  <unicode hex="0026"/>
  <outline>
    <contour>
      <point x="547" y="-47" type="curve" smooth="yes"/>
      <point x="573" y="-28"/>
      <point x="578" y="11"/>
      <point x="559" y="37" type="curve" smooth="yes"/>
      <point x="331" y="340" type="line"/>
      <point x="510" y="340" type="line" smooth="yes"/>
      <point x="542" y="340"/>
      <point x="570" y="367"/>
      <point x="570" y="400" type="curve" smooth="yes"/>
      <point x="570" y="432"/>
      <point x="543" y="460"/>
      <point x="510" y="460" type="curve" smooth="yes"/>
      <point x="110" y="461" type="line" smooth="yes"/>
      <point x="78" y="461"/>
      <point x="50" y="434"/>
      <point x="50" y="401" type="curve" smooth="yes"/>
      <point x="50" y="369"/>
      <point x="77" y="341"/>
      <point x="110" y="341" type="curve" smooth="yes"/>
      <point x="181" y="341" type="line"/>
      <point x="463" y="-35" type="line" smooth="yes"/>
      <point x="482" y="-61"/>
      <point x="521" y="-66"/>
    </contour>
  </outline>
</glyph>
<glyph name="comma" format="1">
  <advance width="320"/>
  <unicode hex="002C"/>
  <outline>
    <contour>
      <point x="237" y="196" type="curve" smooth="yes"/>
      <point x="208" y="210"/>
      <point x="171" y="198"/>
      <point x="156" y="169" type="curve" smooth="yes"/>
      <point x="56" y="-31" type="line" smooth="yes"/>
      <point x="42" y="-60"/>
      <point x="54" y="-97"/>
      <point x="83" y="-112" type="curve" smooth="yes"/>
      <point x="112" y="-126"/>
      <point x="149" y="-114"/>
      <point x="164" y="-85" type="curve" smooth="yes"/>
      <point x="264" y="115" type="line" smooth="yes"/>
      <point x="278" y="144"/>
      <point x="266" y="181"/>
    </contour>
  </outline>
</glyph>
<glyph name="zero" format="1">
  <advance width="823"/>
  <unicode hex="0030"/>
  <outline>
    <contour>
      <point x="355" y="-41" type="curve" smooth="yes"/>
      <point x="361" y="-35"/>
      <point x="365" y="-29"/>
      <point x="368" y="-21" type="curve"/>
      <point x="760" y="538" type="line" smooth="yes"/>
      <point x="800" y="594"/>
      <point x="739" y="659"/>
      <point x="680" y="623" type="curve" smooth="yes"/>
      <point x="637" y="597" type="line"/>
      <point x="713" y="698" type="line" smooth="yes"/>
      <point x="732" y="724"/>
      <point x="727" y="762"/>
      <point x="701" y="782" type="curve" smooth="yes"/>
      <point x="675" y="801"/>
      <point x="637" y="796"/>
      <point x="617" y="770" type="curve" smooth="yes"/>
      <point x="361" y="432" type="line"/>
      <point x="80" y="263" type="line" smooth="yes"/>
      <point x="45" y="243"/>
      <point x="40" y="200"/>
      <point x="68" y="170" type="curve" smooth="yes"/>
      <point x="121" y="115" type="line"/>
      <point x="103" y="92" type="line" smooth="yes"/>
      <point x="84" y="66"/>
      <point x="89" y="28"/>
      <point x="115" y="8" type="curve" smooth="yes"/>
      <point x="141" y="-11"/>
      <point x="179" y="-6"/>
      <point x="199" y="20" type="curve" smooth="yes"/>
      <point x="205" y="28" type="line"/>
      <point x="261" y="-30" type="line"/>
      <point x="265" y="-37"/>
      <point x="270" y="-43"/>
      <point x="277" y="-47" type="curve" smooth="yes"/>
      <point x="287" y="-55"/>
      <point x="300" y="-58"/>
      <point x="313" y="-58" type="curve"/>
      <point x="328" y="-58"/>
      <point x="343" y="-52"/>
    </contour>
    <contour>
      <point x="296" y="147" type="line"/>
      <point x="442" y="341" type="line"/>
      <point x="500" y="375" type="line"/>
      <point x="305" y="97" type="line"/>
      <point x="278" y="125" type="line"/>
    </contour>
  </outline>
</glyph>
<glyph name="one" format="1">
  <advance width="820"/>
  <unicode hex="0031"/>
  <outline>
    <contour>
      <point x="110" y="-59" type="curve" smooth="yes"/>
      <point x="710" y="-59" type="line" smooth="yes"/>
      <point x="742" y="-59"/>
      <point x="770" y="-31"/>
      <point x="770" y="1" type="curve" smooth="yes"/>
      <point x="770" y="33"/>
      <point x="742" y="61"/>
      <point x="710" y="61" type="curve" smooth="yes"/>
      <point x="291" y="61" type="line"/>
      <point x="467" y="654" type="line" smooth="yes"/>
      <point x="482" y="702"/>
      <point x="445" y="741"/>
      <point x="396" y="729" type="curve" smooth="yes"/>
      <point x="96" y="659" type="line" smooth="yes"/>
      <point x="65" y="652"/>
      <point x="44" y="619"/>
      <point x="52" y="587" type="curve" smooth="yes"/>
      <point x="59" y="556"/>
      <point x="92" y="535"/>
      <point x="124" y="543" type="curve" smooth="yes"/>
      <point x="323" y="589" type="line"/>
      <point x="165" y="61" type="line"/>
      <point x="110" y="61" type="line" smooth="yes"/>
      <point x="78" y="61"/>
      <point x="50" y="33"/>
      <point x="50" y="1" type="curve" smooth="yes"/>
      <point x="50" y="-31"/>
      <point x="78" y="-59"/>
    </contour>
  </outline>
</glyph>
<glyph name="two" format="1">
  <advance width="820"/>
  <unicode hex="0032"/>
  <outline>
    <contour>
      <point x="712" y="-60" type="curve" smooth="yes"/>
      <point x="744" y="-59"/>
      <point x="771" y="-31"/>
      <point x="770" y="2" type="curve" smooth="yes"/>
      <point x="750" y="692" type="line" smooth="yes"/>
      <point x="749" y="730"/>
      <point x="718" y="756"/>
      <point x="681" y="750" type="curve" smooth="yes"/>
      <point x="101" y="659" type="line" smooth="yes"/>
      <point x="69" y="654"/>
      <point x="46" y="623"/>
      <point x="51" y="591" type="curve" smooth="yes"/>
      <point x="56" y="559"/>
      <point x="87" y="536"/>
      <point x="119" y="541" type="curve" smooth="yes"/>
      <point x="632" y="621" type="line"/>
      <point x="650" y="-2" type="line" smooth="yes"/>
      <point x="651" y="-34"/>
      <point x="679" y="-61"/>
    </contour>
  </outline>
</glyph>
<glyph name="three" format="1">
  <advance width="822"/>
  <unicode hex="0033"/>
  <outline>
    <contour>
      <point x="114" y="141" type="curve" smooth="yes"/>
      <point x="713" y="185" type="line" smooth="yes"/>
      <point x="777" y="189"/>
      <point x="794" y="263"/>
      <point x="740" y="296" type="curve" smooth="yes"/>
      <point x="141" y="653" type="line" smooth="yes"/>
      <point x="113" y="669"/>
      <point x="75" y="660"/>
      <point x="58" y="632" type="curve" smooth="yes"/>
      <point x="42" y="604"/>
      <point x="51" y="566"/>
      <point x="79" y="549" type="curve" smooth="yes"/>
      <point x="514" y="290" type="line"/>
      <point x="106" y="261" type="line" smooth="yes"/>
      <point x="73" y="259"/>
      <point x="48" y="229"/>
      <point x="50" y="197" type="curve" smooth="yes"/>
      <point x="52" y="164"/>
      <point x="82" y="139"/>
    </contour>
  </outline>
</glyph>
<glyph name="four" format="1">
  <advance width="581"/>
  <unicode hex="0034"/>
  <outline>
    <contour>
      <point x="471" y="-59" type="curve" smooth="yes"/>
      <point x="503" y="-59"/>
      <point x="531" y="-31"/>
      <point x="531" y="1" type="curve" smooth="yes"/>
      <point x="531" y="600" type="line" smooth="yes"/>
      <point x="531" y="632"/>
      <point x="503" y="660"/>
      <point x="471" y="660" type="curve" smooth="yes"/>
      <point x="439" y="660"/>
      <point x="411" y="632"/>
      <point x="411" y="600" type="curve" smooth="yes"/>
      <point x="411" y="314" type="line"/>
      <point x="179" y="697" type="line"/>
      <point x="222" y="769" type="line" smooth="yes"/>
      <point x="239" y="797"/>
      <point x="230" y="835"/>
      <point x="202" y="851" type="curve" smooth="yes"/>
      <point x="174" y="868"/>
      <point x="136" y="859"/>
      <point x="120" y="831" type="curve" smooth="yes"/>
      <point x="57" y="727" type="line" smooth="yes"/>
      <point x="47" y="710"/>
      <point x="47" y="683"/>
      <point x="58" y="665" type="curve" smooth="yes"/>
      <point x="411" y="83" type="line"/>
      <point x="411" y="1" type="line" smooth="yes"/>
      <point x="411" y="-31"/>
      <point x="439" y="-59"/>
    </contour>
  </outline>
</glyph>
<glyph name="five" format="1">
  <advance width="820"/>
  <unicode hex="0035"/>
  <outline>
    <contour>
      <point x="161" y="170" type="curve" smooth="yes"/>
      <point x="504" y="741" type="line"/>
      <point x="710" y="741" type="line" smooth="yes"/>
      <point x="742" y="741"/>
      <point x="770" y="769"/>
      <point x="770" y="801" type="curve" smooth="yes"/>
      <point x="770" y="833"/>
      <point x="742" y="861"/>
      <point x="710" y="861" type="curve" smooth="yes"/>
      <point x="470" y="861" type="line" smooth="yes"/>
      <point x="451" y="861"/>
      <point x="428" y="848"/>
      <point x="419" y="832" type="curve" smooth="yes"/>
      <point x="59" y="232" type="line" smooth="yes"/>
      <point x="42" y="204"/>
      <point x="51" y="166"/>
      <point x="79" y="150" type="curve" smooth="yes"/>
      <point x="107" y="133"/>
      <point x="145" y="142"/>
    </contour>
  </outline>
</glyph>
<glyph name="six" format="1">
  <advance width="823"/>
  <unicode hex="0036"/>
  <outline>
    <contour>
      <point x="681" y="193" type="line"/>
      <point x="743" y="296" type="line"/>
      <point x="331" y="541" type="line"/>
      <point x="713" y="541" type="line" smooth="yes"/>
      <point x="745" y="541"/>
      <point x="773" y="569"/>
      <point x="773" y="601" type="curve" smooth="yes"/>
      <point x="773" y="633"/>
      <point x="745" y="661"/>
      <point x="713" y="661" type="curve" smooth="yes"/>
      <point x="113" y="661" type="line" smooth="yes"/>
      <point x="47" y="661"/>
      <point x="26" y="583"/>
      <point x="82" y="549" type="curve" smooth="yes"/>
    </contour>
  </outline>
</glyph>
<glyph name="seven" format="1">
  <advance width="803"/>
  <unicode hex="0037"/>
  <outline>
    <contour>
      <point x="360" y="-36" type="curve" smooth="yes"/>
      <point x="742" y="539" type="line" smooth="yes"/>
      <point x="765" y="572"/>
      <point x="752" y="613"/>
      <point x="714" y="628" type="curve" smooth="yes"/>
      <point x="132" y="853" type="line" smooth="yes"/>
      <point x="101" y="865"/>
      <point x="66" y="849"/>
      <point x="54" y="819" type="curve" smooth="yes"/>
      <point x="42" y="788"/>
      <point x="58" y="753"/>
      <point x="88" y="741" type="curve" smooth="yes"/>
      <point x="601" y="543" type="line"/>
      <point x="260" y="30" type="line" smooth="yes"/>
      <point x="242" y="3"/>
      <point x="250" y="-35"/>
      <point x="277" y="-53" type="curve" smooth="yes"/>
      <point x="304" y="-71"/>
      <point x="342" y="-63"/>
    </contour>
  </outline>
</glyph>
<glyph name="eight" format="1">
  <advance width="230"/>
  <unicode hex="0038"/>
  <outline>
    <contour>
      <point x="180" y="400" type="curve" smooth="yes"/>
      <point x="180" y="432"/>
      <point x="152" y="460"/>
      <point x="120" y="460" type="curve" smooth="yes"/>
      <point x="110" y="460" type="line" smooth="yes"/>
      <point x="78" y="460"/>
      <point x="50" y="432"/>
      <point x="50" y="400" type="curve" smooth="yes"/>
      <point x="50" y="368"/>
      <point x="78" y="340"/>
      <point x="110" y="340" type="curve" smooth="yes"/>
      <point x="120" y="340" type="line" smooth="yes"/>
      <point x="152" y="340"/>
      <point x="180" y="368"/>
    </contour>
  </outline>
</glyph>
<glyph name="nine" format="1">
  <advance width="823"/>
  <unicode hex="0039"/>
  <outline>
    <contour>
      <point x="110" y="140" type="curve" smooth="yes"/>
      <point x="710" y="140" type="line" smooth="yes"/>
      <point x="776" y="140"/>
      <point x="797" y="218"/>
      <point x="741" y="252" type="curve" smooth="yes"/>
      <point x="142" y="608" type="line"/>
      <point x="80" y="505" type="line"/>
      <point x="492" y="260" type="line"/>
      <point x="110" y="260" type="line" smooth="yes"/>
      <point x="78" y="260"/>
      <point x="50" y="232"/>
      <point x="50" y="200" type="curve" smooth="yes"/>
      <point x="50" y="168"/>
      <point x="78" y="140"/>
    </contour>
  </outline>
</glyph>
<glyph name="semicolon" format="1">
  <advance width="320"/>
  <unicode hex="003B"/>
  <outline>
    <contour>
      <point x="210" y="523" type="curve" smooth="yes"/>
      <point x="242" y="523"/>
      <point x="270" y="551"/>
      <point x="270" y="583" type="curve" smooth="yes"/>
      <point x="270" y="592" type="line" smooth="yes"/>
      <point x="270" y="624"/>
      <point x="242" y="652"/>
      <point x="210" y="652" type="curve" smooth="yes"/>
      <point x="178" y="652"/>
      <point x="150" y="624"/>
      <point x="150" y="592" type="curve" smooth="yes"/>
      <point x="150" y="583" type="line" smooth="yes"/>
      <point x="150" y="551"/>
      <point x="178" y="523"/>
    </contour>
    <contour>
      <point x="237" y="246" type="curve" smooth="yes"/>
      <point x="208" y="260"/>
      <point x="171" y="248"/>
      <point x="156" y="219" type="curve" smooth="yes"/>
      <point x="56" y="19" type="line" smooth="yes"/>
      <point x="42" y="-10"/>
      <point x="54" y="-47"/>
      <point x="83" y="-62" type="curve" smooth="yes"/>
      <point x="112" y="-76"/>
      <point x="149" y="-64"/>
      <point x="164" y="-35" type="curve" smooth="yes"/>
      <point x="264" y="165" type="line" smooth="yes"/>
      <point x="278" y="194"/>
      <point x="266" y="231"/>
    </contour>
  </outline>
</glyph>
<glyph name="greater" format="1">
  <advance width="220"/>
  <unicode hex="003E"/>
  <outline>
    <contour>
      <point x="110" y="580" type="curve" smooth="yes"/>
      <point x="78" y="580"/>
      <point x="50" y="552"/>
      <point x="50" y="520" type="curve" smooth="yes"/>
      <point x="50" y="120" type="line" smooth="yes"/>
      <point x="50" y="88"/>
      <point x="78" y="60"/>
      <point x="110" y="60" type="curve" smooth="yes"/>
      <point x="142" y="60"/>
      <point x="170" y="88"/>
      <point x="170" y="120" type="curve" smooth="yes"/>
      <point x="170" y="520" type="line" smooth="yes"/>
      <point x="170" y="552"/>
      <point x="142" y="580"/>
    </contour>
  </outline>
</glyph>
<glyph name="question" format="1">
  <advance width="419"/>
  <unicode hex="003F"/>
  <outline>
    <contour>
      <point x="336" y="146" type="curve" smooth="yes"/>
      <point x="365" y="161"/>
      <point x="377" y="198"/>
      <point x="363" y="227" type="curve" smooth="yes"/>
      <point x="164" y="626" type="line" smooth="yes"/>
      <point x="149" y="655"/>
      <point x="112" y="667"/>
      <point x="83" y="653" type="curve" smooth="yes"/>
      <point x="54" y="638"/>
      <point x="42" y="601"/>
      <point x="56" y="572" type="curve" smooth="yes"/>
      <point x="255" y="173" type="line" smooth="yes"/>
      <point x="270" y="144"/>
      <point x="307" y="132"/>
    </contour>
    <contour>
      <point x="309" y="-60" type="curve" smooth="yes"/>
      <point x="341" y="-60"/>
      <point x="369" y="-32"/>
      <point x="369" y="0" type="curve" smooth="yes"/>
      <point x="369" y="11" type="line" smooth="yes"/>
      <point x="369" y="43"/>
      <point x="341" y="71"/>
      <point x="309" y="71" type="curve" smooth="yes"/>
      <point x="277" y="71"/>
      <point x="249" y="43"/>
      <point x="249" y="11" type="curve" smooth="yes"/>
      <point x="249" y="0" type="line" smooth="yes"/>
      <point x="249" y="-32"/>
      <point x="277" y="-60"/>
    </contour>
  </outline>
</glyph>
<glyph name="at" format="1">
  <advance width="622"/>
  <unicode hex="0040"/>
  <outline>
    <contour>
      <point x="452" y="158" type="line" smooth="yes"/>
      <point x="452" y="154"/>
      <point x="452" y="151"/>
      <point x="453" y="147" type="curve"/>
      <point x="222" y="479" type="line"/>
      <point x="452" y="494" type="line"/>
    </contour>
    <contour>
      <point x="546" y="-91" type="curve" smooth="yes"/>
      <point x="573" y="-73"/>
      <point x="580" y="-34"/>
      <point x="561" y="-8" type="curve" smooth="yes"/>
      <point x="481" y="107" type="line"/>
      <point x="490" y="101"/>
      <point x="501" y="98"/>
      <point x="512" y="98" type="curve" smooth="yes"/>
      <point x="544" y="98"/>
      <point x="572" y="126"/>
      <point x="572" y="158" type="curve" smooth="yes"/>
      <point x="572" y="558" type="line" smooth="yes"/>
      <point x="572" y="562" type="line"/>
      <point x="572" y="562" type="line" smooth="yes"/>
      <point x="572" y="564"/>
      <point x="572" y="565"/>
      <point x="571" y="567" type="curve"/>
      <point x="571" y="567"/>
      <point x="571" y="568"/>
      <point x="571" y="568" type="curve"/>
      <point x="571" y="570"/>
      <point x="571" y="571"/>
      <point x="570" y="572" type="curve"/>
      <point x="570" y="572"/>
      <point x="570" y="573"/>
      <point x="570" y="573" type="curve"/>
      <point x="568" y="580"/>
      <point x="565" y="586"/>
      <point x="561" y="591" type="curve"/>
      <point x="561" y="592"/>
      <point x="561" y="592"/>
      <point x="561" y="592" type="curve"/>
      <point x="560" y="593"/>
      <point x="559" y="594"/>
      <point x="558" y="595" type="curve"/>
      <point x="558" y="596"/>
      <point x="558" y="596"/>
      <point x="558" y="596" type="curve"/>
      <point x="557" y="597"/>
      <point x="556" y="598"/>
      <point x="555" y="599" type="curve"/>
      <point x="554" y="600"/>
      <point x="554" y="600"/>
      <point x="553" y="601" type="curve"/>
      <point x="553" y="602"/>
      <point x="552" y="602"/>
      <point x="551" y="603" type="curve"/>
      <point x="551" y="603"/>
      <point x="550" y="604"/>
      <point x="549" y="605" type="curve"/>
      <point x="548" y="605"/>
      <point x="548" y="606"/>
      <point x="548" y="606" type="curve"/>
      <point x="546" y="607"/>
      <point x="545" y="608"/>
      <point x="544" y="608" type="curve"/>
      <point x="544" y="609"/>
      <point x="544" y="609"/>
      <point x="543" y="609" type="curve"/>
      <point x="538" y="612"/>
      <point x="531" y="615"/>
      <point x="524" y="617" type="curve"/>
      <point x="524" y="617"/>
      <point x="524" y="617"/>
      <point x="524" y="617" type="curve"/>
      <point x="523" y="617"/>
      <point x="521" y="617"/>
      <point x="520" y="617" type="curve"/>
      <point x="519" y="618"/>
      <point x="519" y="618"/>
      <point x="519" y="618" type="curve"/>
      <point x="513" y="618"/>
      <point x="514" y="618"/>
      <point x="515" y="618" type="curve"/>
      <point x="510" y="618"/>
      <point x="511" y="618"/>
      <point x="513" y="618" type="curve"/>
      <point x="512" y="618" type="line" smooth="yes"/>
      <point x="508" y="618" type="line"/>
      <point x="508" y="618" type="line" smooth="yes"/>
      <point x="108" y="592" type="line" smooth="yes"/>
      <point x="57" y="588"/>
      <point x="34" y="539"/>
      <point x="63" y="497" type="curve" smooth="yes"/>
      <point x="463" y="-76" type="line" smooth="yes"/>
      <point x="481" y="-103"/>
      <point x="520" y="-110"/>
    </contour>
  </outline>
</glyph>
<glyph name="F" format="1">
  <advance width="819"/>
  <unicode hex="0046"/>
  <outline>
    <contour>
      <point x="109" y="-60" type="curve" smooth="yes"/>
      <point x="141" y="-60"/>
      <point x="170" y="-33"/>
      <point x="170" y="-1" type="curve" smooth="yes"/>
      <point x="173" y="212" type="line"/>
      <point x="740" y="551" type="line" smooth="yes"/>
      <point x="768" y="567"/>
      <point x="777" y="605"/>
      <point x="760" y="633" type="curve" smooth="yes"/>
      <point x="744" y="661"/>
      <point x="706" y="670"/>
      <point x="678" y="653" type="curve" smooth="yes"/>
      <point x="83" y="297" type="line" smooth="yes"/>
      <point x="67" y="288"/>
      <point x="54" y="265"/>
      <point x="54" y="247" type="curve" smooth="yes"/>
      <point x="50" y="1" type="line" smooth="yes"/>
      <point x="50" y="-31"/>
      <point x="77" y="-60"/>
    </contour>
  </outline>
</glyph>
<glyph name="G" format="1">
  <advance width="821"/>
  <unicode hex="0047"/>
  <outline>
    <contour>
      <point x="142" y="193" type="curve" smooth="yes"/>
      <point x="742" y="553" type="line" smooth="yes"/>
      <point x="770" y="569"/>
      <point x="779" y="607"/>
      <point x="762" y="635" type="curve" smooth="yes"/>
      <point x="746" y="663"/>
      <point x="708" y="672"/>
      <point x="680" y="655" type="curve" smooth="yes"/>
      <point x="272" y="411" type="line"/>
      <point x="363" y="575" type="line" smooth="yes"/>
      <point x="379" y="603"/>
      <point x="368" y="641"/>
      <point x="340" y="656" type="curve" smooth="yes"/>
      <point x="312" y="672"/>
      <point x="274" y="661"/>
      <point x="259" y="633" type="curve" smooth="yes"/>
      <point x="59" y="273" type="line" smooth="yes"/>
      <point x="27" y="215"/>
      <point x="85" y="159"/>
    </contour>
  </outline>
</glyph>
<glyph name="J" format="1">
  <advance width="819"/>
  <unicode hex="004A"/>
  <outline>
    <contour>
      <point x="140" y="-53" type="curve" smooth="yes"/>
      <point x="439" y="118" type="line" smooth="yes"/>
      <point x="448" y="123"/>
      <point x="459" y="135"/>
      <point x="464" y="144" type="curve" smooth="yes"/>
      <point x="764" y="773" type="line" smooth="yes"/>
      <point x="778" y="802"/>
      <point x="765" y="839"/>
      <point x="736" y="853" type="curve" smooth="yes"/>
      <point x="707" y="867"/>
      <point x="670" y="854"/>
      <point x="656" y="825" type="curve" smooth="yes"/>
      <point x="364" y="213" type="line"/>
      <point x="80" y="51" type="line" smooth="yes"/>
      <point x="52" y="35"/>
      <point x="42" y="-3"/>
      <point x="58" y="-31" type="curve" smooth="yes"/>
      <point x="74" y="-59"/>
      <point x="112" y="-69"/>
    </contour>
  </outline>
</glyph>
<glyph name="M" format="1">
  <advance width="820"/>
  <unicode hex="004D"/>
  <outline>
    <contour>
      <point x="710" y="-61" type="curve" smooth="yes"/>
      <point x="742" y="-61"/>
      <point x="770" y="-33"/>
      <point x="770" y="-1" type="curve" smooth="yes"/>
      <point x="770" y="699" type="line" smooth="yes"/>
      <point x="770" y="750"/>
      <point x="723" y="777"/>
      <point x="679" y="750" type="curve" smooth="yes"/>
      <point x="79" y="390" type="line" smooth="yes"/>
      <point x="63" y="381"/>
      <point x="50" y="358"/>
      <point x="50" y="339" type="curve"/>
      <point x="50" y="-1" type="line" smooth="yes"/>
      <point x="50" y="-33"/>
      <point x="78" y="-61"/>
      <point x="110" y="-61" type="curve" smooth="yes"/>
      <point x="142" y="-61"/>
      <point x="170" y="-33"/>
      <point x="170" y="-1" type="curve" smooth="yes"/>
      <point x="170" y="305" type="line"/>
      <point x="650" y="593" type="line"/>
      <point x="650" y="-1" type="line" smooth="yes"/>
      <point x="650" y="-33"/>
      <point x="678" y="-61"/>
    </contour>
  </outline>
</glyph>
<glyph name="O" format="1">
  <advance width="819"/>
  <unicode hex="004F"/>
  <outline>
    <contour>
      <point x="573" y="-18" type="curve" smooth="yes"/>
      <point x="766" y="650" type="line" smooth="yes"/>
      <point x="782" y="707"/>
      <point x="728" y="748"/>
      <point x="677" y="718" type="curve" smooth="yes"/>
      <point x="80" y="360" type="line" smooth="yes"/>
      <point x="42" y="337"/>
      <point x="39" y="290"/>
      <point x="74" y="262" type="curve" smooth="yes"/>
      <point x="468" y="-48" type="line" smooth="yes"/>
      <point x="479" y="-57"/>
      <point x="494" y="-61"/>
      <point x="508" y="-61" type="curve"/>
      <point x="536" y="-64"/>
      <point x="565" y="-46"/>
    </contour>
    <contour>
      <point x="480" y="95" type="line"/>
      <point x="217" y="302" type="line"/>
      <point x="608" y="536" type="line"/>
    </contour>
  </outline>
</glyph>
<glyph name="P" format="1">
  <advance width="820"/>
  <unicode hex="0050"/>
  <outline>
    <contour>
      <point x="110" y="-57" type="curve" smooth="yes"/>
      <point x="142" y="-57"/>
      <point x="170" y="-29"/>
      <point x="170" y="3" type="curve" smooth="yes"/>
      <point x="170" y="65" type="line"/>
      <point x="740" y="404" type="line" smooth="yes"/>
      <point x="808" y="445"/>
      <point x="747" y="548"/>
      <point x="679" y="507" type="curve" smooth="yes"/>
      <point x="80" y="155" type="line" smooth="yes"/>
      <point x="63" y="145"/>
      <point x="50" y="122"/>
      <point x="50" y="103" type="curve"/>
      <point x="50" y="3" type="line" smooth="yes"/>
      <point x="50" y="-29"/>
      <point x="78" y="-57"/>
    </contour>
  </outline>
</glyph>
<glyph name="Q" format="1">
  <advance width="819"/>
  <unicode hex="0051"/>
  <outline>
    <contour>
      <point x="570" y="-18" type="curve" smooth="yes"/>
      <point x="765" y="649" type="line" smooth="yes"/>
      <point x="782" y="706"/>
      <point x="728" y="748"/>
      <point x="677" y="718" type="curve" smooth="yes"/>
      <point x="80" y="360" type="line" smooth="yes"/>
      <point x="42" y="337"/>
      <point x="39" y="290"/>
      <point x="74" y="262" type="curve" smooth="yes"/>
      <point x="465" y="-48" type="line" smooth="yes"/>
      <point x="476" y="-57"/>
      <point x="491" y="-61"/>
      <point x="505" y="-60" type="curve"/>
      <point x="533" y="-64"/>
      <point x="561" y="-46"/>
    </contour>
    <contour>
      <point x="478" y="95" type="line"/>
      <point x="216" y="302" type="line"/>
      <point x="607" y="536" type="line"/>
    </contour>
  </outline>
</glyph>
<glyph name="S" format="1">
  <advance width="820"/>
  <unicode hex="0053"/>
  <outline>
    <contour>
      <point x="412" y="-26" type="curve" smooth="yes"/>
      <point x="763" y="574" type="line" smooth="yes"/>
      <point x="779" y="602"/>
      <point x="769" y="639"/>
      <point x="741" y="656" type="curve" smooth="yes"/>
      <point x="713" y="672"/>
      <point x="676" y="662"/>
      <point x="659" y="634" type="curve" smooth="yes"/>
      <point x="343" y="94" type="line"/>
      <point x="147" y="251" type="line" smooth="yes"/>
      <point x="122" y="271"/>
      <point x="83" y="267"/>
      <point x="63" y="241" type="curve" smooth="yes"/>
      <point x="43" y="216"/>
      <point x="47" y="177"/>
      <point x="73" y="157" type="curve" smooth="yes"/>
      <point x="323" y="-43" type="line" smooth="yes"/>
      <point x="352" y="-67"/>
      <point x="393" y="-59"/>
    </contour>
  </outline>
</glyph>
<glyph name="T" format="1">
  <advance width="532"/>
  <unicode hex="0054"/>
  <outline>
    <contour>
      <point x="409" y="-60" type="curve" smooth="yes"/>
      <point x="441" y="-61"/>
      <point x="469" y="-33"/>
      <point x="470" y="-1" type="curve" smooth="yes"/>
      <point x="482" y="696" type="line" smooth="yes"/>
      <point x="483" y="720"/>
      <point x="464" y="746"/>
      <point x="441" y="754" type="curve" smooth="yes"/>
      <point x="129" y="857" type="line" smooth="yes"/>
      <point x="98" y="867"/>
      <point x="63" y="850"/>
      <point x="53" y="819" type="curve" smooth="yes"/>
      <point x="43" y="788"/>
      <point x="60" y="753"/>
      <point x="91" y="743" type="curve" smooth="yes"/>
      <point x="362" y="654" type="line"/>
      <point x="350" y="1" type="line" smooth="yes"/>
      <point x="349" y="-31"/>
      <point x="377" y="-59"/>
    </contour>
  </outline>
</glyph>
<glyph name="U" format="1">
  <advance width="819"/>
  <unicode hex="0055"/>
  <outline>
    <contour>
      <point x="758" y="99" type="curve" smooth="yes"/>
      <point x="769" y="798" type="line" smooth="yes"/>
      <point x="769" y="830"/>
      <point x="742" y="858"/>
      <point x="710" y="859" type="curve" smooth="yes"/>
      <point x="678" y="859"/>
      <point x="650" y="832"/>
      <point x="649" y="800" type="curve" smooth="yes"/>
      <point x="640" y="207" type="line"/>
      <point x="170" y="502" type="line"/>
      <point x="170" y="799" type="line" smooth="yes"/>
      <point x="170" y="831"/>
      <point x="142" y="859"/>
      <point x="110" y="859" type="curve" smooth="yes"/>
      <point x="78" y="859"/>
      <point x="50" y="831"/>
      <point x="50" y="799" type="curve" smooth="yes"/>
      <point x="50" y="469" type="line" smooth="yes"/>
      <point x="50" y="451"/>
      <point x="63" y="428"/>
      <point x="78" y="418" type="curve" smooth="yes"/>
      <point x="666" y="49" type="line" smooth="yes"/>
      <point x="709" y="22"/>
      <point x="758" y="48"/>
    </contour>
  </outline>
</glyph>
<glyph name="W" format="1">
  <advance width="820"/>
  <unicode hex="0057"/>
  <outline>
    <contour>
      <point x="141" y="49" type="curve" smooth="yes"/>
      <point x="741" y="409" type="line" smooth="yes"/>
      <point x="757" y="418"/>
      <point x="770" y="441"/>
      <point x="770" y="460" type="curve" smooth="yes"/>
      <point x="770" y="800" type="line" smooth="yes"/>
      <point x="770" y="832"/>
      <point x="742" y="860"/>
      <point x="710" y="860" type="curve" smooth="yes"/>
      <point x="678" y="860"/>
      <point x="650" y="832"/>
      <point x="650" y="800" type="curve" smooth="yes"/>
      <point x="650" y="494" type="line"/>
      <point x="170" y="206" type="line"/>
      <point x="170" y="800" type="line" smooth="yes"/>
      <point x="170" y="832"/>
      <point x="142" y="860"/>
      <point x="110" y="860" type="curve" smooth="yes"/>
      <point x="78" y="860"/>
      <point x="50" y="832"/>
      <point x="50" y="800" type="curve" smooth="yes"/>
      <point x="50" y="100" type="line"/>
      <point x="50" y="49"/>
      <point x="97" y="22"/>
    </contour>
  </outline>
</glyph>
<glyph name="X" format="1">
  <advance width="819"/>
  <unicode hex="0058"/>
  <outline>
    <contour>
      <point x="169" y="-9" type="curve" smooth="yes"/>
      <point x="220" y="318" type="line"/>
      <point x="672" y="-47" type="line" smooth="yes"/>
      <point x="698" y="-67"/>
      <point x="736" y="-63"/>
      <point x="757" y="-38" type="curve" smooth="yes"/>
      <point x="777" y="-12"/>
      <point x="773" y="26"/>
      <point x="748" y="47" type="curve" smooth="yes"/>
      <point x="309" y="401" type="line"/>
      <point x="748" y="753" type="line" smooth="yes"/>
      <point x="773" y="773"/>
      <point x="777" y="812"/>
      <point x="757" y="838" type="curve" smooth="yes"/>
      <point x="737" y="863"/>
      <point x="698" y="867"/>
      <point x="672" y="847" type="curve" smooth="yes"/>
      <point x="223" y="486" type="line"/>
      <point x="169" y="810" type="line" smooth="yes"/>
      <point x="164" y="842"/>
      <point x="132" y="864"/>
      <point x="100" y="859" type="curve" smooth="yes"/>
      <point x="68" y="854"/>
      <point x="46" y="822"/>
      <point x="51" y="790" type="curve" smooth="yes"/>
      <point x="111" y="426" type="line" smooth="yes"/>
      <point x="112" y="419"/>
      <point x="116" y="410"/>
      <point x="121" y="402" type="curve"/>
      <point x="114" y="394"/>
      <point x="109" y="382"/>
      <point x="107" y="373" type="curve" smooth="yes"/>
      <point x="51" y="9" type="line" smooth="yes"/>
      <point x="46" y="-23"/>
      <point x="69" y="-54"/>
      <point x="101" y="-59" type="curve" smooth="yes"/>
      <point x="133" y="-64"/>
      <point x="164" y="-41"/>
    </contour>
  </outline>
</glyph>
<glyph name="bracketleft" format="1">
  <advance width="519"/>
  <unicode hex="005B"/>
  <outline>
    <contour>
      <point x="461" y="-30" type="curve" smooth="yes"/>
      <point x="477" y="-1"/>
      <point x="467" y="36"/>
      <point x="439" y="52" type="curve" smooth="yes"/>
      <point x="187" y="195" type="line"/>
      <point x="463" y="774" type="line" smooth="yes"/>
      <point x="477" y="803"/>
      <point x="464" y="840"/>
      <point x="435" y="854" type="curve" smooth="yes"/>
      <point x="406" y="868"/>
      <point x="369" y="855"/>
      <point x="355" y="826" type="curve" smooth="yes"/>
      <point x="55" y="196" type="line" smooth="yes"/>
      <point x="42" y="168"/>
      <point x="53" y="133"/>
      <point x="79" y="118" type="curve" smooth="yes"/>
      <point x="379" y="-52" type="line" smooth="yes"/>
      <point x="408" y="-68"/>
      <point x="445" y="-58"/>
    </contour>
  </outline>
</glyph>
<glyph name="bracketright" format="1">
  <advance width="519"/>
  <unicode hex="005D"/>
  <outline>
    <contour>
      <point x="140" y="-53" type="curve" smooth="yes"/>
      <point x="440" y="117" type="line" smooth="yes"/>
      <point x="466" y="132"/>
      <point x="477" y="167"/>
      <point x="464" y="195" type="curve" smooth="yes"/>
      <point x="164" y="825" type="line" smooth="yes"/>
      <point x="150" y="854"/>
      <point x="113" y="867"/>
      <point x="84" y="853" type="curve" smooth="yes"/>
      <point x="55" y="839"/>
      <point x="42" y="802"/>
      <point x="56" y="773" type="curve" smooth="yes"/>
      <point x="332" y="194" type="line"/>
      <point x="80" y="51" type="line" smooth="yes"/>
      <point x="52" y="35"/>
      <point x="42" y="-2"/>
      <point x="58" y="-31" type="curve" smooth="yes"/>
      <point x="74" y="-59"/>
      <point x="111" y="-69"/>
    </contour>
  </outline>
</glyph>
<glyph name="asciicircum" format="1">
  <advance width="820"/>
  <unicode hex="005E"/>
  <outline>
    <contour>
      <point x="50" y="502" type="curve" smooth="yes"/>
      <point x="50" y="470"/>
      <point x="78" y="442"/>
      <point x="110" y="442" type="curve" smooth="yes"/>
      <point x="710" y="442" type="line" smooth="yes"/>
      <point x="742" y="442"/>
      <point x="770" y="470"/>
      <point x="770" y="502" type="curve" smooth="yes"/>
      <point x="770" y="534"/>
      <point x="742" y="562"/>
      <point x="710" y="562" type="curve" smooth="yes"/>
      <point x="110" y="562" type="line" smooth="yes"/>
      <point x="78" y="562"/>
      <point x="50" y="534"/>
    </contour>
  </outline>
</glyph>
<glyph name="a" format="1">
  <advance width="220"/>
  <unicode hex="0061"/>
  <outline>
    <contour>
      <point x="110" y="406" type="curve" smooth="yes"/>
      <point x="78" y="406"/>
      <point x="50" y="378"/>
      <point x="50" y="346" type="curve" smooth="yes"/>
      <point x="50" y="-4" type="line" smooth="yes"/>
      <point x="50" y="-36"/>
      <point x="78" y="-64"/>
      <point x="110" y="-64" type="curve" smooth="yes"/>
      <point x="142" y="-64"/>
      <point x="170" y="-36"/>
      <point x="170" y="-4" type="curve" smooth="yes"/>
      <point x="170" y="346" type="line" smooth="yes"/>
      <point x="170" y="378"/>
      <point x="142" y="406"/>
    </contour>
  </outline>
</glyph>
<glyph name="c" format="1">
  <advance width="823"/>
  <unicode hex="0063"/>
  <outline>
    <contour>
      <point x="773" y="193" type="curve" smooth="yes"/>
      <point x="775" y="226"/>
      <point x="750" y="255"/>
      <point x="718" y="258" type="curve" smooth="yes"/>
      <point x="308" y="290" type="line"/>
      <point x="743" y="546" type="line" smooth="yes"/>
      <point x="771" y="563"/>
      <point x="781" y="600"/>
      <point x="765" y="628" type="curve" smooth="yes"/>
      <point x="748" y="656"/>
      <point x="711" y="666"/>
      <point x="683" y="650" type="curve" smooth="yes"/>
      <point x="83" y="297" type="line" smooth="yes"/>
      <point x="28" y="265"/>
      <point x="45" y="191"/>
      <point x="108" y="186" type="curve" smooth="yes"/>
      <point x="708" y="138" type="line" smooth="yes"/>
      <point x="741" y="136"/>
      <point x="770" y="161"/>
    </contour>
  </outline>
</glyph>
<glyph name="d" format="1">
  <advance width="820"/>
  <unicode hex="0064"/>
  <outline>
    <contour>
      <point x="141" y="187" type="curve" smooth="yes"/>
      <point x="741" y="537" type="line" smooth="yes"/>
      <point x="762" y="549"/>
      <point x="772" y="572"/>
      <point x="770" y="595" type="curve"/>
      <point x="772" y="607"/>
      <point x="769" y="619"/>
      <point x="762" y="630" type="curve" smooth="yes"/>
      <point x="746" y="658"/>
      <point x="708" y="667"/>
      <point x="680" y="650" type="curve" smooth="yes"/>
      <point x="80" y="290" type="line" smooth="yes"/>
      <point x="12" y="250"/>
      <point x="73" y="147"/>
    </contour>
  </outline>
</glyph>
<glyph name="e" format="1">
  <advance width="818"/>
  <unicode hex="0065"/>
  <outline>
    <contour>
      <point x="553" y="-43" type="curve" smooth="yes"/>
      <point x="751" y="153" type="line" smooth="yes"/>
      <point x="774" y="176"/>
      <point x="774" y="215"/>
      <point x="752" y="238" type="curve" smooth="yes"/>
      <point x="729" y="261"/>
      <point x="690" y="261"/>
      <point x="667" y="239" type="curve" smooth="yes"/>
      <point x="502" y="75" type="line"/>
      <point x="228" y="245" type="line"/>
      <point x="739" y="550" type="line" smooth="yes"/>
      <point x="767" y="567"/>
      <point x="776" y="605"/>
      <point x="760" y="633" type="curve" smooth="yes"/>
      <point x="743" y="661"/>
      <point x="705" y="670"/>
      <point x="677" y="654" type="curve" smooth="yes"/>
      <point x="82" y="298" type="line" smooth="yes"/>
      <point x="40" y="273"/>
      <point x="40" y="221"/>
      <point x="81" y="196" type="curve" smooth="yes"/>
      <point x="477" y="-51" type="line" smooth="yes"/>
      <point x="488" y="-58"/>
      <point x="500" y="-60"/>
      <point x="512" y="-60" type="curve"/>
      <point x="527" y="-59"/>
      <point x="542" y="-54"/>
    </contour>
  </outline>
</glyph>
<glyph name="f" format="1">
  <advance width="819"/>
  <unicode hex="0066"/>
  <outline>
    <contour>
      <point x="109" y="-56" type="curve" smooth="yes"/>
      <point x="141" y="-57"/>
      <point x="169" y="-29"/>
      <point x="170" y="3" type="curve" smooth="yes"/>
      <point x="173" y="218" type="line"/>
      <point x="386" y="344" type="line"/>
      <point x="510" y="344" type="line" smooth="yes"/>
      <point x="542" y="344"/>
      <point x="570" y="372"/>
      <point x="570" y="404" type="curve" smooth="yes"/>
      <point x="570" y="419"/>
      <point x="564" y="433"/>
      <point x="554" y="444" type="curve"/>
      <point x="740" y="554" type="line" smooth="yes"/>
      <point x="768" y="571"/>
      <point x="777" y="609"/>
      <point x="761" y="637" type="curve" smooth="yes"/>
      <point x="744" y="665"/>
      <point x="706" y="674"/>
      <point x="678" y="658" type="curve" smooth="yes"/>
      <point x="353" y="464" type="line"/>
      <point x="310" y="464" type="line" smooth="yes"/>
      <point x="278" y="464"/>
      <point x="250" y="436"/>
      <point x="250" y="404" type="curve" smooth="yes"/>
      <point x="250" y="403" type="line"/>
      <point x="83" y="304" type="line" smooth="yes"/>
      <point x="67" y="294"/>
      <point x="54" y="272"/>
      <point x="54" y="253" type="curve" smooth="yes"/>
      <point x="50" y="5" type="line" smooth="yes"/>
      <point x="49" y="-27"/>
      <point x="77" y="-55"/>
    </contour>
  </outline>
</glyph>
<glyph name="h" format="1">
  <advance width="820"/>
  <unicode hex="0068"/>
  <outline>
    <contour>
      <point x="710" y="-64" type="curve" smooth="yes"/>
      <point x="742" y="-64"/>
      <point x="770" y="-36"/>
      <point x="770" y="-4" type="curve" smooth="yes"/>
      <point x="770" y="696" type="line" smooth="yes"/>
      <point x="770" y="748"/>
      <point x="720" y="775"/>
      <point x="677" y="746" type="curve" smooth="yes"/>
      <point x="187" y="420" type="line"/>
      <point x="170" y="799" type="line" smooth="yes"/>
      <point x="168" y="831"/>
      <point x="140" y="857"/>
      <point x="107" y="856" type="curve" smooth="yes"/>
      <point x="75" y="854"/>
      <point x="49" y="826"/>
      <point x="50" y="793" type="curve" smooth="yes"/>
      <point x="72" y="308" type="line" smooth="yes"/>
      <point x="74" y="257"/>
      <point x="123" y="233"/>
      <point x="165" y="261" type="curve" smooth="yes"/>
      <point x="650" y="584" type="line"/>
      <point x="650" y="-4" type="line" smooth="yes"/>
      <point x="650" y="-36"/>
      <point x="678" y="-64"/>
    </contour>
  </outline>
</glyph>
<glyph name="i" format="1">
  <advance width="819"/>
  <unicode hex="0069"/>
  <outline>
    <contour>
      <point x="164" y="-27" type="curve" smooth="yes"/>
      <point x="456" y="576" type="line"/>
      <point x="741" y="748" type="line" smooth="yes"/>
      <point x="769" y="764"/>
      <point x="778" y="802"/>
      <point x="761" y="830" type="curve" smooth="yes"/>
      <point x="745" y="858"/>
      <point x="707" y="867"/>
      <point x="679" y="850" type="curve" smooth="yes"/>
      <point x="379" y="670" type="line" smooth="yes"/>
      <point x="370" y="665"/>
      <point x="360" y="653"/>
      <point x="356" y="645" type="curve" smooth="yes"/>
      <point x="56" y="25" type="line" smooth="yes"/>
      <point x="42" y="-4"/>
      <point x="55" y="-41"/>
      <point x="84" y="-55" type="curve" smooth="yes"/>
      <point x="113" y="-69"/>
      <point x="150" y="-56"/>
    </contour>
  </outline>
</glyph>
<glyph name="k" format="1">
  <advance width="820"/>
  <unicode hex="006B"/>
  <outline>
    <contour>
      <point x="761" y="-27" type="curve" smooth="yes"/>
      <point x="778" y="1"/>
      <point x="769" y="39"/>
      <point x="741" y="55" type="curve" smooth="yes"/>
      <point x="170" y="398" type="line"/>
      <point x="170" y="804" type="line" smooth="yes"/>
      <point x="170" y="836"/>
      <point x="142" y="864"/>
      <point x="110" y="864" type="curve" smooth="yes"/>
      <point x="78" y="864"/>
      <point x="50" y="836"/>
      <point x="50" y="804" type="curve" smooth="yes"/>
      <point x="50" y="364" type="line" smooth="yes"/>
      <point x="50" y="345"/>
      <point x="63" y="322"/>
      <point x="79" y="313" type="curve" smooth="yes"/>
      <point x="679" y="-47" type="line" smooth="yes"/>
      <point x="707" y="-64"/>
      <point x="745" y="-55"/>
    </contour>
    <contour>
      <point x="483" y="350" type="curve" smooth="yes"/>
      <point x="512" y="336"/>
      <point x="549" y="348"/>
      <point x="564" y="377" type="curve" smooth="yes"/>
      <point x="764" y="777" type="line" smooth="yes"/>
      <point x="778" y="806"/>
      <point x="766" y="843"/>
      <point x="737" y="858" type="curve" smooth="yes"/>
      <point x="708" y="872"/>
      <point x="671" y="860"/>
      <point x="656" y="831" type="curve" smooth="yes"/>
      <point x="456" y="431" type="line" smooth="yes"/>
      <point x="442" y="402"/>
      <point x="454" y="365"/>
    </contour>
  </outline>
</glyph>
<glyph name="l" format="1">
  <advance width="820"/>
  <unicode hex="006C"/>
  <outline>
    <contour>
      <point x="769" y="-11" type="curve" smooth="yes"/>
      <point x="775" y="21"/>
      <point x="753" y="53"/>
      <point x="721" y="59" type="curve" smooth="yes"/>
      <point x="181" y="159" type="line"/>
      <point x="170" y="801" type="line" smooth="yes"/>
      <point x="169" y="833"/>
      <point x="141" y="861"/>
      <point x="109" y="860" type="curve" smooth="yes"/>
      <point x="77" y="859"/>
      <point x="49" y="831"/>
      <point x="50" y="799" type="curve" smooth="yes"/>
      <point x="62" y="108" type="line" smooth="yes"/>
      <point x="62" y="81"/>
      <point x="84" y="55"/>
      <point x="111" y="50" type="curve" smooth="yes"/>
      <point x="699" y="-59" type="line" smooth="yes"/>
      <point x="731" y="-65"/>
      <point x="763" y="-43"/>
    </contour>
  </outline>
</glyph>
<glyph name="n" format="1">
  <advance width="820"/>
  <unicode hex="006E"/>
  <outline>
    <contour>
      <point x="170" y="-1" type="curve" smooth="yes"/>
      <point x="170" y="66" type="line"/>
      <point x="394" y="575" type="line"/>
      <point x="657" y="71" type="line" smooth="yes"/>
      <point x="688" y="12"/>
      <point x="770" y="32"/>
      <point x="770" y="99" type="curve" smooth="yes"/>
      <point x="770" y="799" type="line" smooth="yes"/>
      <point x="770" y="831"/>
      <point x="742" y="859"/>
      <point x="710" y="859" type="curve" smooth="yes"/>
      <point x="678" y="859"/>
      <point x="650" y="831"/>
      <point x="650" y="799" type="curve" smooth="yes"/>
      <point x="650" y="344" type="line"/>
      <point x="443" y="741" type="line" smooth="yes"/>
      <point x="418" y="789"/>
      <point x="357" y="787"/>
      <point x="335" y="737" type="curve" smooth="yes"/>
      <point x="55" y="103" type="line" smooth="yes"/>
      <point x="52" y="97"/>
      <point x="50" y="86"/>
      <point x="50" y="79" type="curve" smooth="yes"/>
      <point x="50" y="-1" type="line" smooth="yes"/>
      <point x="50" y="-33"/>
      <point x="78" y="-61"/>
      <point x="110" y="-61" type="curve" smooth="yes"/>
      <point x="142" y="-61"/>
      <point x="170" y="-33"/>
    </contour>
  </outline>
</glyph>
<glyph name="r" format="1">
  <advance width="820"/>
  <unicode hex="0072"/>
  <outline>
    <contour>
      <point x="145" y="-52" type="curve" smooth="yes"/>
      <point x="410" y="146" type="line"/>
      <point x="674" y="-52" type="line" smooth="yes"/>
      <point x="700" y="-71"/>
      <point x="739" y="-66"/>
      <point x="758" y="-40" type="curve" smooth="yes"/>
      <point x="777" y="-14"/>
      <point x="772" y="25"/>
      <point x="746" y="44" type="curve" smooth="yes"/>
      <point x="510" y="221" type="line"/>
      <point x="546" y="248" type="line" smooth="yes"/>
      <point x="572" y="267"/>
      <point x="577" y="306"/>
      <point x="558" y="332" type="curve" smooth="yes"/>
      <point x="539" y="358"/>
      <point x="500" y="363"/>
      <point x="474" y="344" type="curve" smooth="yes"/>
      <point x="410" y="296" type="line"/>
      <point x="345" y="344" type="line" smooth="yes"/>
      <point x="319" y="363"/>
      <point x="280" y="358"/>
      <point x="261" y="332" type="curve" smooth="yes"/>
      <point x="242" y="306"/>
      <point x="247" y="267"/>
      <point x="273" y="248" type="curve" smooth="yes"/>
      <point x="309" y="221" type="line"/>
      <point x="73" y="44" type="line" smooth="yes"/>
      <point x="47" y="25"/>
      <point x="42" y="-14"/>
      <point x="61" y="-40" type="curve" smooth="yes"/>
      <point x="80" y="-66"/>
      <point x="119" y="-71"/>
    </contour>
  </outline>
</glyph>
<glyph name="v" format="1">
  <advance width="820"/>
  <unicode hex="0076"/>
  <outline>
    <contour>
      <point x="332" y="86" type="curve" smooth="yes"/>
      <point x="757" y="633" type="line" smooth="yes"/>
      <point x="764" y="642"/>
      <point x="770" y="659"/>
      <point x="770" y="670" type="curve" smooth="yes"/>
      <point x="770" y="800" type="line" smooth="yes"/>
      <point x="770" y="832"/>
      <point x="742" y="860"/>
      <point x="710" y="860" type="curve" smooth="yes"/>
      <point x="678" y="860"/>
      <point x="650" y="832"/>
      <point x="650" y="800" type="curve" smooth="yes"/>
      <point x="650" y="691" type="line"/>
      <point x="313" y="256" type="line"/>
      <point x="168" y="815" type="line" smooth="yes"/>
      <point x="160" y="846"/>
      <point x="126" y="866"/>
      <point x="95" y="858" type="curve" smooth="yes"/>
      <point x="64" y="850"/>
      <point x="44" y="816"/>
      <point x="52" y="785" type="curve" smooth="yes"/>
      <point x="227" y="108" type="line" smooth="yes"/>
      <point x="241" y="55"/>
      <point x="299" y="43"/>
    </contour>
  </outline>
</glyph>
<glyph name="y" format="1">
  <advance width="727"/>
  <unicode hex="0079"/>
  <outline>
    <contour>
      <point x="142" y="-50" type="curve" smooth="yes"/>
      <point x="648" y="264" type="line" smooth="yes"/>
      <point x="683" y="285"/>
      <point x="687" y="329"/>
      <point x="657" y="358" type="curve" smooth="yes"/>
      <point x="151" y="841" type="line" smooth="yes"/>
      <point x="128" y="864"/>
      <point x="89" y="863"/>
      <point x="67" y="839" type="curve" smooth="yes"/>
      <point x="44" y="816"/>
      <point x="45" y="777"/>
      <point x="69" y="755" type="curve" smooth="yes"/>
      <point x="518" y="325" type="line"/>
      <point x="78" y="52" type="line" smooth="yes"/>
      <point x="51" y="35"/>
      <point x="42" y="-3"/>
      <point x="59" y="-31" type="curve" smooth="yes"/>
      <point x="76" y="-58"/>
      <point x="114" y="-67"/>
    </contour>
  </outline>
</glyph>
<glyph name="z" format="1">
  <advance width="820"/>
  <unicode hex="007A"/>
  <outline>
    <contour>
      <point x="769" y="-10" type="curve" smooth="yes"/>
      <point x="775" y="22"/>
      <point x="752" y="54"/>
      <point x="720" y="59" type="curve" smooth="yes"/>
      <point x="181" y="151" type="line"/>
      <point x="170" y="801" type="line" smooth="yes"/>
      <point x="169" y="833"/>
      <point x="141" y="861"/>
      <point x="109" y="860" type="curve" smooth="yes"/>
      <point x="77" y="859"/>
      <point x="49" y="831"/>
      <point x="50" y="799" type="curve" smooth="yes"/>
      <point x="62" y="100" type="line" smooth="yes"/>
      <point x="62" y="72"/>
      <point x="84" y="46"/>
      <point x="112" y="41" type="curve" smooth="yes"/>
      <point x="700" y="-59" type="line" smooth="yes"/>
      <point x="732" y="-65"/>
      <point x="764" y="-42"/>
    </contour>
  </outline>
</glyph>
<glyph name="braceleft" format="1">
  <advance width="519"/>
  <unicode hex="007B"/>
  <outline>
    <contour>
      <point x="461" y="-32" type="curve" smooth="yes"/>
      <point x="477" y="-4"/>
      <point x="467" y="34"/>
      <point x="439" y="50" type="curve" smooth="yes"/>
      <point x="187" y="194" type="line"/>
      <point x="463" y="772" type="line" smooth="yes"/>
      <point x="477" y="801"/>
      <point x="464" y="838"/>
      <point x="435" y="852" type="curve" smooth="yes"/>
      <point x="406" y="866"/>
      <point x="369" y="853"/>
      <point x="355" y="824" type="curve" smooth="yes"/>
      <point x="55" y="196" type="line" smooth="yes"/>
      <point x="42" y="168"/>
      <point x="53" y="133"/>
      <point x="79" y="118" type="curve" smooth="yes"/>
      <point x="379" y="-54" type="line" smooth="yes"/>
      <point x="407" y="-70"/>
      <point x="445" y="-60"/>
    </contour>
  </outline>
</glyph>
<glyph name="braceright" format="1">
  <advance width="519"/>
  <unicode hex="007D"/>
  <outline>
    <contour>
      <point x="140" y="-53" type="curve" smooth="yes"/>
      <point x="440" y="119" type="line" smooth="yes"/>
      <point x="466" y="134"/>
      <point x="477" y="169"/>
      <point x="464" y="197" type="curve" smooth="yes"/>
      <point x="164" y="825" type="line" smooth="yes"/>
      <point x="150" y="854"/>
      <point x="113" y="867"/>
      <point x="84" y="853" type="curve" smooth="yes"/>
      <point x="55" y="839"/>
      <point x="42" y="802"/>
      <point x="56" y="773" type="curve" smooth="yes"/>
      <point x="332" y="195" type="line"/>
      <point x="80" y="51" type="line" smooth="yes"/>
      <point x="52" y="35"/>
      <point x="42" y="-3"/>
      <point x="58" y="-31" type="curve" smooth="yes"/>
      <point x="74" y="-59"/>
      <point x="112" y="-69"/>
    </contour>
  </outline>
</glyph>
<glyph name="asciitilde" format="1">
  <advance width="820"/>
  <unicode hex="007E"/>
  <outline>
    <contour>
      <point x="53" y="84" type="curve" smooth="yes"/>
      <point x="63" y="53"/>
      <point x="98" y="36"/>
      <point x="129" y="46" type="curve" smooth="yes"/>
      <point x="729" y="246" type="line" smooth="yes"/>
      <point x="760" y="256"/>
      <point x="777" y="291"/>
      <point x="767" y="322" type="curve" smooth="yes"/>
      <point x="757" y="353"/>
      <point x="722" y="370"/>
      <point x="691" y="360" type="curve" smooth="yes"/>
      <point x="91" y="160" type="line" smooth="yes"/>
      <point x="60" y="150"/>
      <point x="43" y="115"/>
    </contour>
  </outline>
</glyph>
<glyph name="cent" format="1">
  <advance width="320"/>
  <unicode hex="00A2"/>
  <outline>
    <contour>
      <point x="170" y="-100" type="curve" smooth="yes"/>
      <point x="170" y="-44" type="line"/>
      <point x="181" y="-54"/>
      <point x="195" y="-60"/>
      <point x="210" y="-60" type="curve" smooth="yes"/>
      <point x="242" y="-60"/>
      <point x="270" y="-32"/>
      <point x="270" y="0" type="curve" smooth="yes"/>
      <point x="270" y="400" type="line" smooth="yes"/>
      <point x="270" y="432"/>
      <point x="242" y="460"/>
      <point x="210" y="460" type="curve" smooth="yes"/>
      <point x="195" y="460"/>
      <point x="181" y="454"/>
      <point x="170" y="444" type="curve"/>
      <point x="170" y="500" type="line" smooth="yes"/>
      <point x="170" y="532"/>
      <point x="142" y="560"/>
      <point x="110" y="560" type="curve" smooth="yes"/>
      <point x="78" y="560"/>
      <point x="50" y="532"/>
      <point x="50" y="500" type="curve" smooth="yes"/>
      <point x="50" y="400" type="line" smooth="yes"/>
      <point x="50" y="368"/>
      <point x="78" y="340"/>
      <point x="110" y="340" type="curve" smooth="yes"/>
      <point x="125" y="340"/>
      <point x="139" y="346"/>
      <point x="150" y="356" type="curve"/>
      <point x="150" y="44" type="line"/>
      <point x="139" y="54"/>
      <point x="125" y="60"/>
      <point x="110" y="60" type="curve" smooth="yes"/>
      <point x="78" y="60"/>
      <point x="50" y="32"/>
      <point x="50" y="0" type="curve" smooth="yes"/>
      <point x="50" y="-100" type="line" smooth="yes"/>
      <point x="50" y="-132"/>
      <point x="78" y="-160"/>
      <point x="110" y="-160" type="curve" smooth="yes"/>
      <point x="142" y="-160"/>
      <point x="170" y="-132"/>
    </contour>
  </outline>
</glyph>
<glyph name="sterling" format="1">
  <advance width="570"/>
  <unicode hex="00A3"/>
  <outline>
    <contour>
      <point x="477" y="-57" type="curve" smooth="yes"/>
      <point x="508" y="-47"/>
      <point x="527" y="-13"/>
      <point x="518" y="18" type="curve" smooth="yes"/>
      <point x="423" y="342" type="line"/>
      <point x="449" y="348"/>
      <point x="470" y="373"/>
      <point x="470" y="401" type="curve" smooth="yes"/>
      <point x="470" y="433"/>
      <point x="442" y="461"/>
      <point x="410" y="461" type="curve" smooth="yes"/>
      <point x="388" y="461" type="line"/>
      <point x="335" y="641" type="line"/>
      <point x="494" y="752" type="line" smooth="yes"/>
      <point x="521" y="770"/>
      <point x="528" y="809"/>
      <point x="509" y="835" type="curve" smooth="yes"/>
      <point x="491" y="862"/>
      <point x="452" y="869"/>
      <point x="426" y="850" type="curve" smooth="yes"/>
      <point x="231" y="715" type="line" smooth="yes"/>
      <point x="212" y="701"/>
      <point x="201" y="672"/>
      <point x="208" y="649" type="curve" smooth="yes"/>
      <point x="263" y="461" type="line"/>
      <point x="110" y="461" type="line" smooth="yes"/>
      <point x="78" y="461"/>
      <point x="50" y="433"/>
      <point x="50" y="401" type="curve" smooth="yes"/>
      <point x="50" y="369"/>
      <point x="78" y="341"/>
      <point x="110" y="341" type="curve" smooth="yes"/>
      <point x="298" y="341" type="line"/>
      <point x="402" y="-16" type="line" smooth="yes"/>
      <point x="412" y="-47"/>
      <point x="446" y="-66"/>
    </contour>
  </outline>
</glyph>
<glyph name="section" format="1">
  <advance width="819"/>
  <unicode hex="00A7"/>
  <outline>
    <contour>
      <point x="739" y="156" type="curve" smooth="yes"/>
      <point x="690" y="200" type="line"/>
      <point x="702" y="223"/>
      <point x="697" y="253"/>
      <point x="677" y="271" type="curve" smooth="yes"/>
      <point x="310" y="604" type="line"/>
      <point x="701" y="544" type="line" smooth="yes"/>
      <point x="733" y="539"/>
      <point x="764" y="562"/>
      <point x="769" y="594" type="curve" smooth="yes"/>
      <point x="774" y="626"/>
      <point x="751" y="657"/>
      <point x="719" y="662" type="curve" smooth="yes"/>
      <point x="131" y="753" type="line" smooth="yes"/>
      <point x="67" y="763"/>
      <point x="34" y="693"/>
      <point x="81" y="650" type="curve" smooth="yes"/>
      <point x="130" y="606" type="line"/>
      <point x="118" y="583"/>
      <point x="123" y="553"/>
      <point x="143" y="535" type="curve" smooth="yes"/>
      <point x="510" y="202" type="line"/>
      <point x="119" y="262" type="line" smooth="yes"/>
      <point x="87" y="267"/>
      <point x="56" y="244"/>
      <point x="51" y="212" type="curve" smooth="yes"/>
      <point x="46" y="180"/>
      <point x="69" y="149"/>
      <point x="101" y="144" type="curve" smooth="yes"/>
      <point x="689" y="53" type="line" smooth="yes"/>
      <point x="753" y="43"/>
      <point x="786" y="113"/>
    </contour>
  </outline>
</glyph>
<glyph name="degree" format="1">
  <advance width="220"/>
  <unicode hex="00B0"/>
  <outline>
    <contour>
      <point x="110" y="453" type="curve" smooth="yes"/>
      <point x="142" y="453"/>
      <point x="170" y="481"/>
      <point x="170" y="513" type="curve" smooth="yes"/>
      <point x="170" y="523" type="line" smooth="yes"/>
      <point x="170" y="555"/>
      <point x="142" y="583"/>
      <point x="110" y="583" type="curve" smooth="yes"/>
      <point x="78" y="583"/>
      <point x="50" y="555"/>
      <point x="50" y="523" type="curve" smooth="yes"/>
      <point x="50" y="513" type="line" smooth="yes"/>
      <point x="50" y="481"/>
      <point x="78" y="453"/>
    </contour>
  </outline>
</glyph>
<glyph name="paragraph" format="1">
  <advance width="420"/>
  <unicode hex="00B6"/>
  <outline>
    <contour>
      <point x="310" y="-60" type="curve" smooth="yes"/>
      <point x="342" y="-60"/>
      <point x="370" y="-32"/>
      <point x="370" y="0" type="curve" smooth="yes"/>
      <point x="370" y="30" type="line" smooth="yes"/>
      <point x="370" y="35"/>
      <point x="369" y="43"/>
      <point x="367" y="47" type="curve" smooth="yes"/>
      <point x="167" y="717" type="line" smooth="yes"/>
      <point x="147" y="786"/>
      <point x="50" y="772"/>
      <point x="50" y="700" type="curve" smooth="yes"/>
      <point x="50" y="0" type="line" smooth="yes"/>
      <point x="50" y="-32"/>
      <point x="78" y="-60"/>
      <point x="110" y="-60" type="curve" smooth="yes"/>
      <point x="142" y="-60"/>
      <point x="170" y="-32"/>
      <point x="170" y="0" type="curve" smooth="yes"/>
      <point x="170" y="289" type="line"/>
      <point x="250" y="21" type="line"/>
      <point x="250" y="0" type="line" smooth="yes"/>
      <point x="250" y="-32"/>
      <point x="278" y="-60"/>
    </contour>
  </outline>
</glyph>
<glyph name="guillemotright" format="1">
  <advance width="420"/>
  <unicode hex="00BB"/>
  <outline>
    <contour>
      <point x="110" y="461" type="curve" smooth="yes"/>
      <point x="78" y="461"/>
      <point x="50" y="433"/>
      <point x="50" y="401" type="curve" smooth="yes"/>
      <point x="50" y="1" type="line" smooth="yes"/>
      <point x="50" y="-31"/>
      <point x="78" y="-59"/>
      <point x="110" y="-59" type="curve" smooth="yes"/>
      <point x="142" y="-59"/>
      <point x="170" y="-31"/>
      <point x="170" y="1" type="curve" smooth="yes"/>
      <point x="170" y="401" type="line" smooth="yes"/>
      <point x="170" y="433"/>
      <point x="142" y="461"/>
    </contour>
    <contour>
      <point x="310" y="461" type="curve" smooth="yes"/>
      <point x="278" y="461"/>
      <point x="250" y="433"/>
      <point x="250" y="401" type="curve" smooth="yes"/>
      <point x="250" y="1" type="line" smooth="yes"/>
      <point x="250" y="-31"/>
      <point x="278" y="-59"/>
      <point x="310" y="-59" type="curve" smooth="yes"/>
      <point x="342" y="-59"/>
      <point x="370" y="-31"/>
      <point x="370" y="1" type="curve" smooth="yes"/>
      <point x="370" y="401" type="line" smooth="yes"/>
      <point x="370" y="433"/>
      <point x="342" y="461"/>
    </contour>
  </outline>
</glyph>
<glyph name="Agrave" format="1">
  <advance width="820"/>
  <unicode hex="00C0"/>
  <outline>
    <contour>
      <point x="460" y="895" type="curve" smooth="yes"/>
      <point x="478" y="922"/>
      <point x="470" y="960"/>
      <point x="443" y="978" type="curve" smooth="yes"/>
      <point x="143" y="1178" type="line" smooth="yes"/>
      <point x="116" y="1196"/>
      <point x="78" y="1188"/>
      <point x="60" y="1161" type="curve" smooth="yes"/>
      <point x="42" y="1134"/>
      <point x="50" y="1096"/>
      <point x="77" y="1078" type="curve" smooth="yes"/>
      <point x="377" y="878" type="line" smooth="yes"/>
      <point x="404" y="860"/>
      <point x="442" y="868"/>
    </contour>
    <contour>
      <point x="710" y="406" type="curve" smooth="yes"/>
      <point x="678" y="406"/>
      <point x="650" y="378"/>
      <point x="650" y="346" type="curve" smooth="yes"/>
      <point x="650" y="-4" type="line" smooth="yes"/>
      <point x="650" y="-36"/>
      <point x="678" y="-64"/>
      <point x="710" y="-64" type="curve" smooth="yes"/>
      <point x="742" y="-64"/>
      <point x="770" y="-36"/>
      <point x="770" y="-4" type="curve" smooth="yes"/>
      <point x="770" y="346" type="line" smooth="yes"/>
      <point x="770" y="378"/>
      <point x="742" y="406"/>
    </contour>
  </outline>
</glyph>
<glyph name="Aacute" format="1">
  <advance width="520"/>
  <unicode hex="00C1"/>
  <outline>
    <contour>
      <point x="60" y="895" type="curve" smooth="yes"/>
      <point x="78" y="868"/>
      <point x="116" y="860"/>
      <point x="143" y="878" type="curve" smooth="yes"/>
      <point x="443" y="1078" type="line" smooth="yes"/>
      <point x="470" y="1096"/>
      <point x="478" y="1134"/>
      <point x="460" y="1161" type="curve" smooth="yes"/>
      <point x="442" y="1188"/>
      <point x="404" y="1196"/>
      <point x="377" y="1178" type="curve" smooth="yes"/>
      <point x="77" y="978" type="line" smooth="yes"/>
      <point x="50" y="960"/>
      <point x="42" y="922"/>
    </contour>
    <contour>
      <point x="410" y="406" type="curve" smooth="yes"/>
      <point x="378" y="406"/>
      <point x="350" y="378"/>
      <point x="350" y="346" type="curve" smooth="yes"/>
      <point x="350" y="-4" type="line" smooth="yes"/>
      <point x="350" y="-36"/>
      <point x="378" y="-64"/>
      <point x="410" y="-64" type="curve" smooth="yes"/>
      <point x="442" y="-64"/>
      <point x="470" y="-36"/>
      <point x="470" y="-4" type="curve" smooth="yes"/>
      <point x="470" y="346" type="line" smooth="yes"/>
      <point x="470" y="378"/>
      <point x="442" y="406"/>
    </contour>
  </outline>
</glyph>
<glyph name="Ccedilla" format="1">
  <advance width="823"/>
  <unicode hex="00C7"/>
  <outline>
    <contour>
      <point x="773" y="197" type="curve" smooth="yes"/>
      <point x="775" y="229"/>
      <point x="749" y="259"/>
      <point x="717" y="261" type="curve" smooth="yes"/>
      <point x="308" y="288" type="line"/>
      <point x="744" y="550" type="line" smooth="yes"/>
      <point x="772" y="566"/>
      <point x="781" y="604"/>
      <point x="764" y="632" type="curve" smooth="yes"/>
      <point x="748" y="660"/>
      <point x="710" y="669"/>
      <point x="682" y="652" type="curve" smooth="yes"/>
      <point x="82" y="293" type="line" smooth="yes"/>
      <point x="28" y="260"/>
      <point x="46" y="186"/>
      <point x="109" y="182" type="curve" smooth="yes"/>
      <point x="709" y="141" type="line" smooth="yes"/>
      <point x="741" y="139"/>
      <point x="771" y="165"/>
    </contour>
  </outline>
</glyph>
<glyph name="Egrave" format="1">
  <advance width="824"/>
  <unicode hex="00C8"/>
  <outline>
    <contour>
      <point x="460" y="895" type="curve" smooth="yes"/>
      <point x="478" y="922"/>
      <point x="470" y="960"/>
      <point x="443" y="978" type="curve" smooth="yes"/>
      <point x="143" y="1178" type="line" smooth="yes"/>
      <point x="116" y="1196"/>
      <point x="78" y="1188"/>
      <point x="60" y="1161" type="curve" smooth="yes"/>
      <point x="42" y="1134"/>
      <point x="50" y="1096"/>
      <point x="77" y="1078" type="curve" smooth="yes"/>
      <point x="377" y="878" type="line" smooth="yes"/>
      <point x="404" y="860"/>
      <point x="442" y="868"/>
    </contour>
    <contour>
      <point x="559" y="-43" type="curve" smooth="yes"/>
      <point x="757" y="153" type="line" smooth="yes"/>
      <point x="780" y="176"/>
      <point x="780" y="215"/>
      <point x="758" y="238" type="curve" smooth="yes"/>
      <point x="735" y="261"/>
      <point x="696" y="261"/>
      <point x="673" y="239" type="curve" smooth="yes"/>
      <point x="508" y="75" type="line"/>
      <point x="234" y="245" type="line"/>
      <point x="745" y="550" type="line" smooth="yes"/>
      <point x="773" y="567"/>
      <point x="782" y="605"/>
      <point x="766" y="633" type="curve" smooth="yes"/>
      <point x="749" y="661"/>
      <point x="711" y="670"/>
      <point x="683" y="654" type="curve" smooth="yes"/>
      <point x="88" y="298" type="line" smooth="yes"/>
      <point x="46" y="273"/>
      <point x="46" y="221"/>
      <point x="87" y="196" type="curve" smooth="yes"/>
      <point x="483" y="-51" type="line" smooth="yes"/>
      <point x="494" y="-58"/>
      <point x="506" y="-60"/>
      <point x="518" y="-60" type="curve"/>
      <point x="533" y="-59"/>
      <point x="548" y="-54"/>
    </contour>
  </outline>
</glyph>
<glyph name="Eacute" format="1">
  <advance width="818"/>
  <unicode hex="00C9"/>
  <outline>
    <contour>
      <point x="354" y="895" type="curve" smooth="yes"/>
      <point x="372" y="868"/>
      <point x="410" y="860"/>
      <point x="437" y="878" type="curve" smooth="yes"/>
      <point x="737" y="1078" type="line" smooth="yes"/>
      <point x="764" y="1096"/>
      <point x="772" y="1134"/>
      <point x="754" y="1161" type="curve" smooth="yes"/>
      <point x="736" y="1188"/>
      <point x="698" y="1196"/>
      <point x="671" y="1178" type="curve" smooth="yes"/>
      <point x="371" y="978" type="line" smooth="yes"/>
      <point x="344" y="960"/>
      <point x="336" y="922"/>
    </contour>
    <contour>
      <point x="553" y="-43" type="curve" smooth="yes"/>
      <point x="751" y="153" type="line" smooth="yes"/>
      <point x="774" y="176"/>
      <point x="774" y="215"/>
      <point x="752" y="238" type="curve" smooth="yes"/>
      <point x="729" y="261"/>
      <point x="690" y="261"/>
      <point x="667" y="239" type="curve" smooth="yes"/>
      <point x="502" y="75" type="line"/>
      <point x="228" y="245" type="line"/>
      <point x="739" y="550" type="line" smooth="yes"/>
      <point x="767" y="567"/>
      <point x="776" y="605"/>
      <point x="760" y="633" type="curve" smooth="yes"/>
      <point x="743" y="661"/>
      <point x="705" y="670"/>
      <point x="677" y="654" type="curve" smooth="yes"/>
      <point x="82" y="298" type="line" smooth="yes"/>
      <point x="40" y="273"/>
      <point x="40" y="221"/>
      <point x="81" y="196" type="curve" smooth="yes"/>
      <point x="477" y="-51" type="line" smooth="yes"/>
      <point x="488" y="-58"/>
      <point x="500" y="-60"/>
      <point x="512" y="-60" type="curve"/>
      <point x="527" y="-59"/>
      <point x="542" y="-54"/>
    </contour>
  </outline>
</glyph>
<glyph name="Ecircumflex" format="1">
  <advance width="824"/>
  <unicode hex="00CA"/>
  <outline>
    <contour>
      <point x="50" y="928" type="curve" smooth="yes"/>
      <point x="50" y="896"/>
      <point x="78" y="868"/>
      <point x="110" y="868" type="curve" smooth="yes"/>
      <point x="710" y="868" type="line" smooth="yes"/>
      <point x="742" y="868"/>
      <point x="770" y="896"/>
      <point x="770" y="928" type="curve" smooth="yes"/>
      <point x="770" y="960"/>
      <point x="742" y="988"/>
      <point x="710" y="988" type="curve" smooth="yes"/>
      <point x="110" y="988" type="line" smooth="yes"/>
      <point x="78" y="988"/>
      <point x="50" y="960"/>
    </contour>
    <contour>
      <point x="559" y="-43" type="curve" smooth="yes"/>
      <point x="757" y="153" type="line" smooth="yes"/>
      <point x="780" y="176"/>
      <point x="780" y="215"/>
      <point x="758" y="238" type="curve" smooth="yes"/>
      <point x="735" y="261"/>
      <point x="696" y="261"/>
      <point x="673" y="239" type="curve" smooth="yes"/>
      <point x="508" y="75" type="line"/>
      <point x="234" y="245" type="line"/>
      <point x="745" y="550" type="line" smooth="yes"/>
      <point x="773" y="567"/>
      <point x="782" y="605"/>
      <point x="766" y="633" type="curve" smooth="yes"/>
      <point x="749" y="661"/>
      <point x="711" y="670"/>
      <point x="683" y="654" type="curve" smooth="yes"/>
      <point x="88" y="298" type="line" smooth="yes"/>
      <point x="46" y="273"/>
      <point x="46" y="221"/>
      <point x="87" y="196" type="curve" smooth="yes"/>
      <point x="483" y="-51" type="line" smooth="yes"/>
      <point x="494" y="-58"/>
      <point x="506" y="-60"/>
      <point x="518" y="-60" type="curve"/>
      <point x="533" y="-59"/>
      <point x="548" y="-54"/>
    </contour>
  </outline>
</glyph>
<glyph name="Ntilde" format="1">
  <advance width="824"/>
  <unicode hex="00D1"/>
  <outline>
    <contour>
      <point x="57" y="909" type="curve" smooth="yes"/>
      <point x="67" y="878"/>
      <point x="102" y="861"/>
      <point x="133" y="871" type="curve" smooth="yes"/>
      <point x="733" y="1071" type="line" smooth="yes"/>
      <point x="764" y="1081"/>
      <point x="781" y="1116"/>
      <point x="771" y="1147" type="curve" smooth="yes"/>
      <point x="761" y="1178"/>
      <point x="726" y="1195"/>
      <point x="695" y="1185" type="curve" smooth="yes"/>
      <point x="95" y="985" type="line" smooth="yes"/>
      <point x="64" y="975"/>
      <point x="47" y="940"/>
    </contour>
    <contour>
      <point x="170" y="-1" type="curve" smooth="yes"/>
      <point x="170" y="66" type="line"/>
      <point x="394" y="575" type="line"/>
      <point x="657" y="71" type="line" smooth="yes"/>
      <point x="688" y="12"/>
      <point x="770" y="32"/>
      <point x="770" y="99" type="curve" smooth="yes"/>
      <point x="770" y="799" type="line" smooth="yes"/>
      <point x="770" y="831"/>
      <point x="742" y="859"/>
      <point x="710" y="859" type="curve" smooth="yes"/>
      <point x="678" y="859"/>
      <point x="650" y="831"/>
      <point x="650" y="799" type="curve" smooth="yes"/>
      <point x="650" y="344" type="line"/>
      <point x="443" y="741" type="line" smooth="yes"/>
      <point x="418" y="789"/>
      <point x="357" y="787"/>
      <point x="335" y="737" type="curve" smooth="yes"/>
      <point x="55" y="103" type="line" smooth="yes"/>
      <point x="52" y="97"/>
      <point x="50" y="86"/>
      <point x="50" y="79" type="curve" smooth="yes"/>
      <point x="50" y="-1" type="line" smooth="yes"/>
      <point x="50" y="-33"/>
      <point x="78" y="-61"/>
      <point x="110" y="-61" type="curve" smooth="yes"/>
      <point x="142" y="-61"/>
      <point x="170" y="-33"/>
    </contour>
  </outline>
</glyph>
<glyph name="Ograve" format="1">
  <advance width="819"/>
  <unicode hex="00D2"/>
  <outline>
    <contour>
      <point x="461" y="895" type="curve" smooth="yes"/>
      <point x="479" y="922"/>
      <point x="471" y="960"/>
      <point x="444" y="978" type="curve" smooth="yes"/>
      <point x="144" y="1178" type="line" smooth="yes"/>
      <point x="117" y="1196"/>
      <point x="79" y="1188"/>
      <point x="61" y="1161" type="curve" smooth="yes"/>
      <point x="43" y="1134"/>
      <point x="51" y="1096"/>
      <point x="78" y="1078" type="curve" smooth="yes"/>
      <point x="378" y="878" type="line" smooth="yes"/>
      <point x="405" y="860"/>
      <point x="443" y="868"/>
    </contour>
    <contour>
      <point x="573" y="-18" type="curve" smooth="yes"/>
      <point x="766" y="650" type="line" smooth="yes"/>
      <point x="782" y="707"/>
      <point x="728" y="748"/>
      <point x="677" y="718" type="curve" smooth="yes"/>
      <point x="80" y="360" type="line" smooth="yes"/>
      <point x="42" y="337"/>
      <point x="39" y="290"/>
      <point x="74" y="262" type="curve" smooth="yes"/>
      <point x="468" y="-48" type="line" smooth="yes"/>
      <point x="479" y="-57"/>
      <point x="494" y="-61"/>
      <point x="508" y="-61" type="curve"/>
      <point x="536" y="-64"/>
      <point x="565" y="-46"/>
    </contour>
    <contour>
      <point x="480" y="95" type="line"/>
      <point x="217" y="302" type="line"/>
      <point x="608" y="536" type="line"/>
    </contour>
  </outline>
</glyph>
<glyph name="Oacute" format="1">
  <advance width="821"/>
  <unicode hex="00D3"/>
  <outline>
    <contour>
      <point x="361" y="895" type="curve" smooth="yes"/>
      <point x="379" y="868"/>
      <point x="417" y="860"/>
      <point x="444" y="878" type="curve" smooth="yes"/>
      <point x="744" y="1078" type="line" smooth="yes"/>
      <point x="771" y="1096"/>
      <point x="779" y="1134"/>
      <point x="761" y="1161" type="curve" smooth="yes"/>
      <point x="743" y="1188"/>
      <point x="705" y="1196"/>
      <point x="678" y="1178" type="curve" smooth="yes"/>
      <point x="378" y="978" type="line" smooth="yes"/>
      <point x="351" y="960"/>
      <point x="343" y="922"/>
    </contour>
    <contour>
      <point x="573" y="-18" type="curve" smooth="yes"/>
      <point x="766" y="650" type="line" smooth="yes"/>
      <point x="782" y="707"/>
      <point x="728" y="748"/>
      <point x="677" y="718" type="curve" smooth="yes"/>
      <point x="80" y="360" type="line" smooth="yes"/>
      <point x="42" y="337"/>
      <point x="39" y="290"/>
      <point x="74" y="262" type="curve" smooth="yes"/>
      <point x="468" y="-48" type="line" smooth="yes"/>
      <point x="479" y="-57"/>
      <point x="494" y="-61"/>
      <point x="508" y="-61" type="curve"/>
      <point x="536" y="-64"/>
      <point x="565" y="-46"/>
    </contour>
    <contour>
      <point x="480" y="95" type="line"/>
      <point x="217" y="302" type="line"/>
      <point x="608" y="536" type="line"/>
    </contour>
  </outline>
</glyph>
<glyph name="Otilde" format="1">
  <advance width="821"/>
  <unicode hex="00D5"/>
  <outline>
    <contour>
      <point x="54" y="909" type="curve" smooth="yes"/>
      <point x="64" y="878"/>
      <point x="99" y="861"/>
      <point x="130" y="871" type="curve" smooth="yes"/>
      <point x="730" y="1071" type="line" smooth="yes"/>
      <point x="761" y="1081"/>
      <point x="778" y="1116"/>
      <point x="768" y="1147" type="curve" smooth="yes"/>
      <point x="758" y="1178"/>
      <point x="723" y="1195"/>
      <point x="692" y="1185" type="curve" smooth="yes"/>
      <point x="92" y="985" type="line" smooth="yes"/>
      <point x="61" y="975"/>
      <point x="44" y="940"/>
    </contour>
    <contour>
      <point x="573" y="-18" type="curve" smooth="yes"/>
      <point x="766" y="650" type="line" smooth="yes"/>
      <point x="782" y="707"/>
      <point x="728" y="748"/>
      <point x="677" y="718" type="curve" smooth="yes"/>
      <point x="80" y="360" type="line" smooth="yes"/>
      <point x="42" y="337"/>
      <point x="39" y="290"/>
      <point x="74" y="262" type="curve" smooth="yes"/>
      <point x="468" y="-48" type="line" smooth="yes"/>
      <point x="479" y="-57"/>
      <point x="494" y="-61"/>
      <point x="508" y="-61" type="curve"/>
      <point x="536" y="-64"/>
      <point x="565" y="-46"/>
    </contour>
    <contour>
      <point x="480" y="95" type="line"/>
      <point x="217" y="302" type="line"/>
      <point x="608" y="536" type="line"/>
    </contour>
  </outline>
</glyph>
<glyph name="atilde" format="1">
  <advance width="820"/>
  <unicode hex="00E3"/>
  <outline>
    <contour>
      <point x="53" y="909" type="curve" smooth="yes"/>
      <point x="63" y="878"/>
      <point x="98" y="861"/>
      <point x="129" y="871" type="curve" smooth="yes"/>
      <point x="729" y="1071" type="line" smooth="yes"/>
      <point x="760" y="1081"/>
      <point x="777" y="1116"/>
      <point x="767" y="1147" type="curve" smooth="yes"/>
      <point x="757" y="1178"/>
      <point x="722" y="1195"/>
      <point x="691" y="1185" type="curve" smooth="yes"/>
      <point x="91" y="985" type="line" smooth="yes"/>
      <point x="60" y="975"/>
      <point x="43" y="940"/>
    </contour>
    <contour>
      <point x="710" y="406" type="curve" smooth="yes"/>
      <point x="678" y="406"/>
      <point x="650" y="378"/>
      <point x="650" y="346" type="curve" smooth="yes"/>
      <point x="650" y="-4" type="line" smooth="yes"/>
      <point x="650" y="-36"/>
      <point x="678" y="-64"/>
      <point x="710" y="-64" type="curve" smooth="yes"/>
      <point x="742" y="-64"/>
      <point x="770" y="-36"/>
      <point x="770" y="-4" type="curve" smooth="yes"/>
      <point x="770" y="346" type="line" smooth="yes"/>
      <point x="770" y="378"/>
      <point x="742" y="406"/>
    </contour>
  </outline>
</glyph>
<glyph name="igrave" format="1">
  <advance width="819"/>
  <unicode hex="00EC"/>
  <outline>
    <contour>
      <point x="464" y="895" type="curve" smooth="yes"/>
      <point x="482" y="922"/>
      <point x="474" y="960"/>
      <point x="447" y="978" type="curve" smooth="yes"/>
      <point x="147" y="1178" type="line" smooth="yes"/>
      <point x="120" y="1196"/>
      <point x="82" y="1188"/>
      <point x="64" y="1161" type="curve" smooth="yes"/>
      <point x="46" y="1134"/>
      <point x="54" y="1096"/>
      <point x="81" y="1078" type="curve" smooth="yes"/>
      <point x="381" y="878" type="line" smooth="yes"/>
      <point x="408" y="860"/>
      <point x="446" y="868"/>
    </contour>
    <contour>
      <point x="164" y="-27" type="curve" smooth="yes"/>
      <point x="456" y="576" type="line"/>
      <point x="741" y="748" type="line" smooth="yes"/>
      <point x="769" y="764"/>
      <point x="778" y="802"/>
      <point x="761" y="830" type="curve" smooth="yes"/>
      <point x="745" y="858"/>
      <point x="707" y="867"/>
      <point x="679" y="850" type="curve" smooth="yes"/>
      <point x="379" y="670" type="line" smooth="yes"/>
      <point x="370" y="665"/>
      <point x="360" y="653"/>
      <point x="356" y="645" type="curve" smooth="yes"/>
      <point x="56" y="25" type="line" smooth="yes"/>
      <point x="42" y="-4"/>
      <point x="55" y="-41"/>
      <point x="84" y="-55" type="curve" smooth="yes"/>
      <point x="113" y="-69"/>
      <point x="150" y="-56"/>
    </contour>
  </outline>
</glyph>
<glyph name="icircumflex" format="1">
  <advance width="824"/>
  <unicode hex="00EE"/>
  <outline>
    <contour>
      <point x="54" y="928" type="curve" smooth="yes"/>
      <point x="54" y="896"/>
      <point x="82" y="868"/>
      <point x="114" y="868" type="curve" smooth="yes"/>
      <point x="714" y="868" type="line" smooth="yes"/>
      <point x="746" y="868"/>
      <point x="774" y="896"/>
      <point x="774" y="928" type="curve" smooth="yes"/>
      <point x="774" y="960"/>
      <point x="746" y="988"/>
      <point x="714" y="988" type="curve" smooth="yes"/>
      <point x="114" y="988" type="line" smooth="yes"/>
      <point x="82" y="988"/>
      <point x="54" y="960"/>
    </contour>
    <contour>
      <point x="164" y="-27" type="curve" smooth="yes"/>
      <point x="456" y="576" type="line"/>
      <point x="741" y="748" type="line" smooth="yes"/>
      <point x="769" y="764"/>
      <point x="778" y="802"/>
      <point x="761" y="830" type="curve" smooth="yes"/>
      <point x="745" y="858"/>
      <point x="707" y="867"/>
      <point x="679" y="850" type="curve" smooth="yes"/>
      <point x="379" y="670" type="line" smooth="yes"/>
      <point x="370" y="665"/>
      <point x="360" y="653"/>
      <point x="356" y="645" type="curve" smooth="yes"/>
      <point x="56" y="25" type="line" smooth="yes"/>
      <point x="42" y="-4"/>
      <point x="55" y="-41"/>
      <point x="84" y="-55" type="curve" smooth="yes"/>
      <point x="113" y="-69"/>
      <point x="150" y="-56"/>
    </contour>
  </outline>
</glyph>
<glyph name="ocircumflex" format="1">
  <advance width="821"/>
  <unicode hex="00F4"/>
  <outline>
    <contour>
      <point x="51" y="928" type="curve" smooth="yes"/>
      <point x="51" y="896"/>
      <point x="79" y="868"/>
      <point x="111" y="868" type="curve" smooth="yes"/>
      <point x="711" y="868" type="line" smooth="yes"/>
      <point x="743" y="868"/>
      <point x="771" y="896"/>
      <point x="771" y="928" type="curve" smooth="yes"/>
      <point x="771" y="960"/>
      <point x="743" y="988"/>
      <point x="711" y="988" type="curve" smooth="yes"/>
      <point x="111" y="988" type="line" smooth="yes"/>
      <point x="79" y="988"/>
      <point x="51" y="960"/>
    </contour>
    <contour>
      <point x="573" y="-18" type="curve" smooth="yes"/>
      <point x="766" y="650" type="line" smooth="yes"/>
      <point x="782" y="707"/>
      <point x="728" y="748"/>
      <point x="677" y="718" type="curve" smooth="yes"/>
      <point x="80" y="360" type="line" smooth="yes"/>
      <point x="42" y="337"/>
      <point x="39" y="290"/>
      <point x="74" y="262" type="curve" smooth="yes"/>
      <point x="468" y="-48" type="line" smooth="yes"/>
      <point x="479" y="-57"/>
      <point x="494" y="-61"/>
      <point x="508" y="-61" type="curve"/>
      <point x="536" y="-64"/>
      <point x="565" y="-46"/>
    </contour>
    <contour>
      <point x="480" y="95" type="line"/>
      <point x="217" y="302" type="line"/>
      <point x="608" y="536" type="line"/>
    </contour>
  </outline>
</glyph>
<glyph name="oslash" format="1">
  <advance width="819"/>
  <unicode hex="00F8"/>
  <outline>
    <contour>
      <point x="157" y="-35" type="curve" smooth="yes"/>
      <point x="757" y="765" type="line" smooth="yes"/>
      <point x="776" y="791"/>
      <point x="771" y="830"/>
      <point x="745" y="849" type="curve" smooth="yes"/>
      <point x="719" y="868"/>
      <point x="680" y="863"/>
      <point x="661" y="837" type="curve" smooth="yes"/>
      <point x="61" y="37" type="line" smooth="yes"/>
      <point x="42" y="11"/>
      <point x="47" y="-28"/>
      <point x="73" y="-47" type="curve" smooth="yes"/>
      <point x="99" y="-66"/>
      <point x="138" y="-61"/>
    </contour>
    <contour>
      <point x="564" y="101" type="curve" smooth="yes"/>
      <point x="564" y="133"/>
      <point x="536" y="161"/>
      <point x="504" y="161" type="curve" smooth="yes"/>
      <point x="494" y="161" type="line" smooth="yes"/>
      <point x="461" y="161"/>
      <point x="434" y="133"/>
      <point x="434" y="101" type="curve" smooth="yes"/>
      <point x="434" y="69"/>
      <point x="461" y="41"/>
      <point x="494" y="41" type="curve" smooth="yes"/>
      <point x="504" y="41" type="line" smooth="yes"/>
      <point x="536" y="41"/>
      <point x="564" y="69"/>
    </contour>
  </outline>
</glyph>
<glyph name="ugrave" format="1">
  <advance width="819"/>
  <unicode hex="00F9"/>
  <outline>
    <contour>
      <point x="461" y="895" type="curve" smooth="yes"/>
      <point x="479" y="922"/>
      <point x="471" y="960"/>
      <point x="444" y="978" type="curve" smooth="yes"/>
      <point x="144" y="1178" type="line" smooth="yes"/>
      <point x="117" y="1196"/>
      <point x="79" y="1188"/>
      <point x="61" y="1161" type="curve" smooth="yes"/>
      <point x="43" y="1134"/>
      <point x="51" y="1096"/>
      <point x="78" y="1078" type="curve" smooth="yes"/>
      <point x="378" y="878" type="line" smooth="yes"/>
      <point x="405" y="860"/>
      <point x="443" y="868"/>
    </contour>
    <contour>
      <point x="758" y="99" type="curve" smooth="yes"/>
      <point x="769" y="798" type="line" smooth="yes"/>
      <point x="769" y="830"/>
      <point x="742" y="858"/>
      <point x="710" y="859" type="curve" smooth="yes"/>
      <point x="678" y="859"/>
      <point x="650" y="832"/>
      <point x="649" y="800" type="curve" smooth="yes"/>
      <point x="640" y="207" type="line"/>
      <point x="170" y="502" type="line"/>
      <point x="170" y="799" type="line" smooth="yes"/>
      <point x="170" y="831"/>
      <point x="142" y="859"/>
      <point x="110" y="859" type="curve" smooth="yes"/>
      <point x="78" y="859"/>
      <point x="50" y="831"/>
      <point x="50" y="799" type="curve" smooth="yes"/>
      <point x="50" y="469" type="line" smooth="yes"/>
      <point x="50" y="451"/>
      <point x="63" y="428"/>
      <point x="78" y="418" type="curve" smooth="yes"/>
      <point x="666" y="49" type="line" smooth="yes"/>
      <point x="709" y="22"/>
      <point x="758" y="48"/>
    </contour>
  </outline>
</glyph>
<glyph name="uacute" format="1">
  <advance width="821"/>
  <unicode hex="00FA"/>
  <outline>
    <contour>
      <point x="361" y="895" type="curve" smooth="yes"/>
      <point x="379" y="868"/>
      <point x="417" y="860"/>
      <point x="444" y="878" type="curve" smooth="yes"/>
      <point x="744" y="1078" type="line" smooth="yes"/>
      <point x="771" y="1096"/>
      <point x="779" y="1134"/>
      <point x="761" y="1161" type="curve" smooth="yes"/>
      <point x="743" y="1188"/>
      <point x="705" y="1196"/>
      <point x="678" y="1178" type="curve" smooth="yes"/>
      <point x="378" y="978" type="line" smooth="yes"/>
      <point x="351" y="960"/>
      <point x="343" y="922"/>
    </contour>
    <contour>
      <point x="758" y="99" type="curve" smooth="yes"/>
      <point x="769" y="798" type="line" smooth="yes"/>
      <point x="769" y="830"/>
      <point x="742" y="858"/>
      <point x="710" y="859" type="curve" smooth="yes"/>
      <point x="678" y="859"/>
      <point x="650" y="832"/>
      <point x="649" y="800" type="curve" smooth="yes"/>
      <point x="640" y="207" type="line"/>
      <point x="170" y="502" type="line"/>
      <point x="170" y="799" type="line" smooth="yes"/>
      <point x="170" y="831"/>
      <point x="142" y="859"/>
      <point x="110" y="859" type="curve" smooth="yes"/>
      <point x="78" y="859"/>
      <point x="50" y="831"/>
      <point x="50" y="799" type="curve" smooth="yes"/>
      <point x="50" y="469" type="line" smooth="yes"/>
      <point x="50" y="451"/>
      <point x="63" y="428"/>
      <point x="78" y="418" type="curve" smooth="yes"/>
      <point x="666" y="49" type="line" smooth="yes"/>
      <point x="709" y="22"/>
      <point x="758" y="48"/>
    </contour>
  </outline>
</glyph>
<glyph name="ucircumflex" format="1">
  <advance width="821"/>
  <unicode hex="00FB"/>
  <outline>
    <contour>
      <point x="51" y="928" type="curve" smooth="yes"/>
      <point x="51" y="896"/>
      <point x="79" y="868"/>
      <point x="111" y="868" type="curve" smooth="yes"/>
      <point x="711" y="868" type="line" smooth="yes"/>
      <point x="743" y="868"/>
      <point x="771" y="896"/>
      <point x="771" y="928" type="curve" smooth="yes"/>
      <point x="771" y="960"/>
      <point x="743" y="988"/>
      <point x="711" y="988" type="curve" smooth="yes"/>
      <point x="111" y="988" type="line" smooth="yes"/>
      <point x="79" y="988"/>
      <point x="51" y="960"/>
    </contour>
    <contour>
      <point x="758" y="99" type="curve" smooth="yes"/>
      <point x="769" y="798" type="line" smooth="yes"/>
      <point x="769" y="830"/>
      <point x="742" y="858"/>
      <point x="710" y="859" type="curve" smooth="yes"/>
      <point x="678" y="859"/>
      <point x="650" y="832"/>
      <point x="649" y="800" type="curve" smooth="yes"/>
      <point x="640" y="207" type="line"/>
      <point x="170" y="502" type="line"/>
      <point x="170" y="799" type="line" smooth="yes"/>
      <point x="170" y="831"/>
      <point x="142" y="859"/>
      <point x="110" y="859" type="curve" smooth="yes"/>
      <point x="78" y="859"/>
      <point x="50" y="831"/>
      <point x="50" y="799" type="curve" smooth="yes"/>
      <point x="50" y="469" type="line" smooth="yes"/>
      <point x="50" y="451"/>
      <point x="63" y="428"/>
      <point x="78" y="418" type="curve" smooth="yes"/>
      <point x="666" y="49" type="line" smooth="yes"/>
      <point x="709" y="22"/>
      <point x="758" y="48"/>
    </contour>
  </outline>
</glyph>
<glyph name="circumflex" format="1">
  <advance width="820"/>
  <unicode hex="02C6"/>
  <outline>
    <contour>
      <point x="50" y="928" type="curve" smooth="yes"/>
      <point x="50" y="896"/>
      <point x="78" y="868"/>
      <point x="110" y="868" type="curve" smooth="yes"/>
      <point x="710" y="868" type="line" smooth="yes"/>
      <point x="742" y="868"/>
      <point x="770" y="896"/>
      <point x="770" y="928" type="curve" smooth="yes"/>
      <point x="770" y="960"/>
      <point x="742" y="988"/>
      <point x="710" y="988" type="curve" smooth="yes"/>
      <point x="110" y="988" type="line" smooth="yes"/>
      <point x="78" y="988"/>
      <point x="50" y="960"/>
    </contour>
  </outline>
</glyph>
<glyph name="tilde" format="1">
  <advance width="820"/>
  <unicode hex="02DC"/>
  <outline>
    <contour>
      <point x="53" y="909" type="curve" smooth="yes"/>
      <point x="63" y="878"/>
      <point x="98" y="861"/>
      <point x="129" y="871" type="curve" smooth="yes"/>
      <point x="729" y="1071" type="line" smooth="yes"/>
      <point x="760" y="1081"/>
      <point x="777" y="1116"/>
      <point x="767" y="1147" type="curve" smooth="yes"/>
      <point x="757" y="1178"/>
      <point x="722" y="1195"/>
      <point x="691" y="1185" type="curve" smooth="yes"/>
      <point x="91" y="985" type="line" smooth="yes"/>
      <point x="60" y="975"/>
      <point x="43" y="940"/>
    </contour>
  </outline>
</glyph>
<glyph name="quoteright" format="1">
  <advance width="320"/>
  <unicode hex="2019"/>
  <outline>
    <contour>
      <point x="237" y="853" type="curve" smooth="yes"/>
      <point x="208" y="867"/>
      <point x="171" y="855"/>
      <point x="156" y="826" type="curve" smooth="yes"/>
      <point x="56" y="626" type="line" smooth="yes"/>
      <point x="42" y="597"/>
      <point x="54" y="560"/>
      <point x="83" y="545" type="curve" smooth="yes"/>
      <point x="112" y="531"/>
      <point x="149" y="543"/>
      <point x="164" y="572" type="curve" smooth="yes"/>
      <point x="264" y="772" type="line" smooth="yes"/>
      <point x="278" y="801"/>
      <point x="266" y="838"/>
    </contour>
  </outline>
</glyph>
<glyph name="minus" format="1">
  <advance width="620"/>
  <unicode hex="2212"/>
  <outline>
    <contour>
      <point x="50" y="322" type="curve" smooth="yes"/>
      <point x="50" y="290"/>
      <point x="78" y="262"/>
      <point x="110" y="262" type="curve" smooth="yes"/>
      <point x="510" y="262" type="line" smooth="yes"/>
      <point x="542" y="262"/>
      <point x="570" y="290"/>
      <point x="570" y="322" type="curve" smooth="yes"/>
      <point x="570" y="354"/>
      <point x="542" y="382"/>
      <point x="510" y="382" type="curve" smooth="yes"/>
      <point x="110" y="382" type="line" smooth="yes"/>
      <point x="78" y="382"/>
      <point x="50" y="354"/>
    </contour>
  </outline>
</glyph>
